<?xml version="1.0" encoding="UTF-8"?>
<svg xmlns="http://www.w3.org/2000/svg" xmlns:xlink="http://www.w3.org/1999/xlink" width="150px" height="150px" viewBox="0 0 150 150" version="1.1">
<g id="surface1">
<path style="fill:none;stroke-width:1;stroke-linecap:round;stroke-linejoin:round;stroke:rgb(79.215688%,82.745099%,96.078432%);stroke-opacity:1;stroke-miterlimit:4;" d="M 10.560833 1.61 L 13.5 10.5 C 12.505 9.982917 11.105 9.202083 10 9.007083 L 8 3.5 L 6 9.007083 C 4.89 9.200833 3.5 9.980833 2.5 10.5 L 5.662917 1.609167 C 5.784167 1.210833 5.845 1.012083 5.965 0.864167 C 6.07 0.734583 6.205833 0.63375 6.36 0.57 C 6.535833 0.5 6.744167 0.5 7.16 0.5 L 9.062083 0.5 C 9.477917 0.5 9.687083 0.5 9.862917 0.570833 C 10.0175 0.634167 10.153333 0.735 10.259167 0.864167 C 10.379167 1.012083 10.439167 1.210833 10.56 1.61 " transform="matrix(9.375,0,0,9.375,0,0)"/>
<path style="fill:none;stroke-width:1;stroke-linecap:round;stroke-linejoin:round;stroke:rgb(77.64706%,62.7451%,96.470588%);stroke-opacity:1;stroke-miterlimit:4;" d="M 10.410833 11.265833 C 9.980833 11.630833 9.119167 11.879167 8.127917 11.879167 C 6.910833 11.879167 5.890833 11.505 5.62 11 C 5.53875 11.269583 5.49875 11.549583 5.500833 11.830833 C 5.500833 11.830833 5.437917 12.869167 6.167083 13.590833 C 6.167083 13.217083 6.474167 12.912083 6.852917 12.912083 C 7.500833 12.912083 7.500833 13.472917 7.5 13.927917 L 7.5 13.967917 C 7.5 14.659167 7.925833 15.25 8.532083 15.5 C 8.439583 15.31 8.39125 15.10125 8.390833 14.89 C 8.390833 14.232083 8.780833 13.987083 9.235833 13.702083 C 9.595833 13.475 9.997083 13.222917 10.274167 12.717083 C 10.5175 12.272917 10.567083 11.747917 10.410833 11.265833 " transform="matrix(9.375,0,0,9.375,0,0)"/>
</g>
</svg>
