<?xml version="1.0" encoding="UTF-8"?>
<svg xmlns="http://www.w3.org/2000/svg" xmlns:xlink="http://www.w3.org/1999/xlink" width="150px" height="150px" viewBox="0 0 150 150" version="1.1">
<g id="surface1">
<path style=" stroke:none;fill-rule:nonzero;fill:rgb(0%,0%,0%);fill-opacity:1;" d="M 133.292969 49.21875 C 132.988281 48.90625 132.675781 48.605469 132.355469 48.3125 C 132.039062 48.023438 131.738281 47.699219 131.417969 47.410156 C 131.101562 47.121094 130.800781 46.792969 130.480469 46.507812 C 130.164062 46.214844 129.863281 45.890625 129.542969 45.601562 C 129.226562 45.3125 128.925781 44.988281 128.605469 44.699219 C 128.289062 44.410156 127.988281 44.082031 127.667969 43.792969 C 127.351562 43.503906 127.050781 43.179688 126.730469 42.890625 C 136.03125 51.703125 141.359375 63.691406 141.5625 76.265625 C 141.5625 106.226562 110.023438 130.597656 71.25 130.597656 C 49.539062 130.597656 30.113281 122.949219 17.195312 110.960938 L 18.132812 111.867188 L 19.070312 112.769531 L 20.007812 113.675781 L 20.945312 114.578125 L 21.882812 115.484375 L 23.757812 117.289062 C 36.65625 129.785156 56.511719 137.828125 78.75 137.828125 C 117.523438 137.828125 149.0625 113.457031 149.0625 83.589844 C 149.0625 70.824219 143.363281 58.726562 133.292969 49.21875 "/>
<path style=" stroke:none;fill-rule:nonzero;fill:rgb(98.431373%,94.117647%,87.450981%);fill-opacity:1;" d="M 136.875 76.265625 C 136.875 103.765625 107.492188 126.058594 71.25 126.058594 C 35.007812 126.058594 5.625 103.765625 5.625 76.265625 C 5.625 59.214844 16.875 44.15625 34.164062 35.222656 C 51.449219 26.289062 62.210938 17.140625 71.25 17.140625 C 80.289062 17.140625 88.011719 24.609375 108.335938 35.222656 C 125.625 44.152344 136.875 59.214844 136.875 76.265625 "/>
<path style=" stroke:none;fill-rule:nonzero;fill:rgb(96.470588%,87.058824%,80.784315%);fill-opacity:1;" d="M 136.875 76.265625 C 136.867188 72.730469 136.359375 69.210938 135.375 65.816406 C 130.257812 126.023438 54.09375 128.914062 24.148438 110.910156 C 37.609375 120.96875 54.21875 126.3125 71.25 126.058594 C 107.4375 126.058594 136.875 103.730469 136.875 76.265625 "/>
<path style=" stroke:none;fill-rule:nonzero;fill:rgb(100%,99.607843%,98.823529%);fill-opacity:1;" d="M 45.992188 31.914062 C 54.375 27.070312 65.511719 17.972656 76.460938 17.957031 C 74.773438 17.429688 73.019531 17.15625 71.25 17.140625 C 66.710938 17.140625 61.875 19.402344 55.78125 22.800781 C 53.664062 23.996094 51.46875 25.316406 49.144531 26.691406 C 44.773438 29.292969 39.769531 32.238281 34.144531 35.1875 C 16.292969 44.5 5.625 59.847656 5.625 76.265625 L 5.625 78.417969 C 16.988281 39.707031 37.632812 36.761719 45.992188 31.914062 "/>
<path style=" stroke:none;fill-rule:nonzero;fill:rgb(80.000001%,74.509805%,65.490198%);fill-opacity:1;" d="M 65.851562 21.71875 C 65.875 25.996094 64.945312 30.226562 63.125 34.101562 C 61.285156 38.019531 58.613281 41.484375 55.292969 44.261719 C 54.769531 44.714844 55.179688 45.582031 55.855469 45.328125 C 62.175781 42.960938 70.707031 35.875 67.105469 21.574219 C 66.957031 20.757812 65.851562 20.976562 65.851562 21.71875 M 70.105469 21.71875 C 72.390625 25.304688 73.851562 29.355469 74.378906 33.578125 C 74.898438 37.78125 74.472656 42.042969 73.125 46.070312 C 72.898438 46.703125 73.707031 47.246094 74.15625 46.722656 C 78.261719 41.660156 81.84375 31.605469 71.117188 20.757812 C 70.574219 20.289062 69.730469 21.011719 70.105469 21.644531 Z M 75.28125 21.410156 C 78.851562 23.839844 81.855469 27.003906 84.09375 30.695312 C 86.304688 34.34375 87.679688 38.433594 88.125 42.671875 C 88.105469 42.824219 88.148438 42.976562 88.242188 43.101562 C 88.445312 43.355469 88.8125 43.414062 89.085938 43.238281 C 89.214844 43.15625 89.308594 43.023438 89.34375 42.871094 C 91.070312 36.5625 90.09375 25.804688 75.898438 20.214844 C 75.148438 19.925781 74.664062 20.902344 75.28125 21.335938 Z M 40.667969 40.210938 C 44.921875 38.996094 48.875 36.910156 52.28125 34.09375 C 55.644531 31.316406 58.375 27.855469 60.300781 23.941406 C 60.636719 23.289062 61.707031 23.542969 61.539062 24.265625 C 58.292969 38.730469 47.4375 41.75 40.6875 41.351562 C 39.976562 41.371094 39.992188 40.414062 40.667969 40.210938 "/>
<path style=" stroke:none;fill-rule:nonzero;fill:rgb(0%,0%,0%);fill-opacity:1;" d="M 71.25 130.597656 C 32.476562 130.597656 0.9375 106.226562 0.9375 76.265625 C 0.9375 58.183594 12.523438 41.316406 31.929688 31.210938 C 37.554688 28.316406 42.375 25.40625 46.667969 22.855469 C 49.03125 21.445312 51.261719 20.125 53.417969 18.898438 C 60 15.136719 65.625 12.621094 71.25 12.621094 C 76.875 12.621094 81.789062 14.792969 87.9375 18.300781 C 89.8125 19.332031 91.6875 20.453125 93.695312 21.679688 C 98.363281 24.464844 103.632812 27.609375 110.570312 31.210938 C 129.976562 41.316406 141.5625 58.167969 141.5625 76.265625 C 141.5625 106.226562 110.023438 130.597656 71.25 130.597656 M 71.25 17.144531 C 66.710938 17.144531 61.875 19.402344 55.78125 22.800781 C 53.664062 23.996094 51.46875 25.316406 49.144531 26.6875 C 44.773438 29.292969 39.769531 32.238281 34.144531 35.1875 C 16.292969 44.5 5.625 59.847656 5.625 76.265625 C 5.625 103.730469 35.0625 126.078125 71.25 126.078125 C 107.4375 126.078125 136.875 103.730469 136.875 76.265625 C 136.875 59.847656 126.207031 44.5 108.335938 35.222656 C 101.25 31.605469 95.71875 28.207031 91.238281 25.53125 C 89.195312 24.320312 87.320312 23.199219 85.613281 22.207031 C 79.929688 18.949219 75.789062 17.144531 71.25 17.144531 "/>
<path style=" stroke:none;fill-rule:nonzero;fill:rgb(71.764708%,7.843138%,13.333334%);fill-opacity:1;" d="M 84.46875 89.464844 C 83.625 92.792969 81.710938 95.773438 78.992188 97.980469 C 76.929688 99.898438 74.296875 101.089844 71.492188 101.378906 C 68.605469 101.136719 65.882812 99.941406 63.75 97.980469 C 61.0625 95.761719 59.171875 92.78125 58.351562 89.464844 C 58.324219 89.265625 58.34375 89.066406 58.410156 88.878906 C 58.472656 88.6875 58.582031 88.515625 58.726562 88.378906 C 59.027344 88.089844 59.4375 87.953125 59.851562 88 L 82.988281 88 C 83.394531 87.957031 83.800781 88.101562 84.097656 88.386719 C 84.386719 88.664062 84.523438 89.066406 84.46875 89.464844 "/>
<path style=" stroke:none;fill-rule:nonzero;fill:rgb(100%,38.039216%,39.215687%);fill-opacity:1;" d="M 63.75 98.125 C 65.878906 100.085938 68.59375 101.296875 71.476562 101.5625 C 74.351562 101.292969 77.058594 100.082031 79.179688 98.125 C 79.847656 97.523438 80.476562 96.878906 81.054688 96.191406 C 79.890625 94.917969 78.480469 93.898438 76.910156 93.1875 C 75.324219 92.46875 73.609375 92.070312 71.867188 92.015625 C 70.007812 92.054688 68.179688 92.53125 66.539062 93.410156 C 64.917969 94.277344 63.527344 95.523438 62.492188 97.039062 C 62.925781 97.417969 63.300781 97.78125 63.75 98.125 "/>
<path style=" stroke:none;fill-rule:nonzero;fill:rgb(0%,0%,0%);fill-opacity:1;" d="M 64.050781 96.695312 C 64.988281 95.53125 66.179688 94.589844 67.53125 93.945312 C 68.898438 93.292969 70.390625 92.945312 71.90625 92.9375 C 74.695312 93.007812 77.363281 94.09375 79.40625 95.992188 C 79.835938 95.539062 80.25 95.070312 80.644531 94.601562 C 78.257812 92.410156 75.105469 91.164062 71.8125 91.109375 C 70.058594 91.125 68.324219 91.511719 66.730469 92.253906 C 65.15625 92.980469 63.761719 94.046875 62.644531 95.375 C 63.085938 95.839844 63.554688 96.28125 64.050781 96.695312 "/>
<path style=" stroke:none;fill-rule:nonzero;fill:rgb(0%,0%,0%);fill-opacity:1;" d="M 71.417969 102.464844 C 68.316406 102.210938 65.382812 100.9375 63.074219 98.847656 C 60.171875 96.480469 58.128906 93.28125 57.242188 89.71875 C 57.179688 89.402344 57.191406 89.074219 57.273438 88.761719 C 57.359375 88.445312 57.515625 88.152344 57.730469 87.910156 C 57.992188 87.609375 58.316406 87.371094 58.679688 87.210938 C 59.046875 87.050781 59.449219 86.972656 59.851562 86.988281 L 82.988281 86.988281 C 83.390625 86.980469 83.789062 87.058594 84.15625 87.21875 C 84.519531 87.375 84.84375 87.609375 85.105469 87.910156 C 85.320312 88.15625 85.472656 88.449219 85.554688 88.761719 C 85.636719 89.074219 85.644531 89.402344 85.574219 89.71875 C 84.6875 93.28125 82.644531 96.480469 79.742188 98.847656 C 77.441406 100.933594 74.515625 102.203125 71.417969 102.464844 M 59.851562 89.085938 C 59.550781 89.085938 59.476562 89.210938 59.457031 89.246094 C 60.25 92.339844 62.042969 95.105469 64.574219 97.148438 C 66.453125 98.917969 68.855469 100.03125 71.417969 100.3125 C 73.976562 100.035156 76.378906 98.9375 78.261719 97.183594 C 80.789062 95.140625 82.574219 92.371094 83.363281 89.285156 Z M 59.851562 89.085938 "/>
<path style=" stroke:none;fill-rule:nonzero;fill:rgb(99.607843%,73.333335%,81.568629%);fill-opacity:1;" d="M 99.789062 90.585938 C 105.847656 90.585938 110.757812 87.800781 110.757812 84.367188 C 110.757812 80.929688 105.847656 78.144531 99.789062 78.144531 C 93.730469 78.144531 88.820312 80.929688 88.820312 84.367188 C 88.820312 87.800781 93.730469 90.585938 99.789062 90.585938 Z M 43.03125 90.585938 C 49.089844 90.585938 54 87.800781 54 84.367188 C 54 80.929688 49.089844 78.144531 43.03125 78.144531 C 36.972656 78.144531 32.0625 80.929688 32.0625 84.367188 C 32.0625 87.800781 36.972656 90.585938 43.03125 90.585938 Z M 43.03125 90.585938 "/>
<path style=" stroke:none;fill-rule:nonzero;fill:rgb(0%,0%,0%);fill-opacity:1;" d="M 48.1875 81.871094 C 50.222656 81.875 52.21875 81.296875 53.933594 80.199219 C 55.617188 79.125 56.945312 77.566406 57.746094 75.734375 C 58.53125 73.921875 58.738281 71.910156 58.339844 69.976562 C 57.9375 68.027344 56.953125 66.246094 55.519531 64.871094 C 54.058594 63.464844 52.21875 62.515625 50.230469 62.140625 C 48.226562 61.753906 46.152344 61.949219 44.257812 62.703125 C 42.382812 63.445312 40.769531 64.71875 39.617188 66.371094 C 38.484375 67.996094 37.878906 69.929688 37.875 71.910156 C 37.875 74.546875 38.960938 77.078125 40.894531 78.945312 C 42.828125 80.8125 45.453125 81.867188 48.1875 81.871094 M 94.632812 81.871094 C 96.667969 81.886719 98.667969 81.316406 100.390625 80.226562 C 102.085938 79.15625 103.421875 77.605469 104.230469 75.769531 C 105.023438 73.960938 105.238281 71.949219 104.847656 70.007812 C 104.449219 68.058594 103.46875 66.273438 102.039062 64.890625 C 100.578125 63.480469 98.742188 62.523438 96.75 62.144531 C 94.746094 61.75 92.667969 61.945312 90.769531 62.699219 C 88.894531 63.4375 87.277344 64.710938 86.121094 66.367188 C 84.988281 67.992188 84.378906 69.925781 84.375 71.910156 C 84.371094 74.539062 85.445312 77.066406 87.371094 78.933594 C 89.292969 80.800781 91.902344 81.855469 94.632812 81.871094 "/>
<path style=" stroke:none;fill-rule:nonzero;fill:rgb(100%,100%,100%);fill-opacity:1;" d="M 45 72.542969 C 45.765625 72.546875 46.515625 72.328125 47.160156 71.917969 C 47.800781 71.507812 48.300781 70.925781 48.597656 70.242188 C 48.894531 69.5625 48.972656 68.808594 48.828125 68.078125 C 48.675781 67.347656 48.308594 66.675781 47.769531 66.15625 C 47.222656 65.628906 46.53125 65.273438 45.78125 65.128906 C 45.03125 64.984375 44.25 65.054688 43.539062 65.339844 C 42.832031 65.617188 42.226562 66.097656 41.792969 66.71875 C 41.367188 67.328125 41.136719 68.054688 41.136719 68.796875 C 41.136719 69.789062 41.542969 70.738281 42.265625 71.4375 C 43 72.144531 43.980469 72.539062 45 72.539062 Z M 91.445312 72.542969 C 92.207031 72.546875 92.960938 72.328125 93.605469 71.917969 C 94.246094 71.507812 94.746094 70.925781 95.042969 70.242188 C 95.339844 69.5625 95.417969 68.808594 95.269531 68.078125 C 95.121094 67.347656 94.753906 66.675781 94.214844 66.15625 C 93.664062 65.628906 92.976562 65.273438 92.226562 65.128906 C 91.472656 64.984375 90.695312 65.054688 89.980469 65.339844 C 89.277344 65.617188 88.671875 66.097656 88.234375 66.71875 C 87.808594 67.328125 87.582031 68.054688 87.582031 68.796875 C 87.582031 69.78125 87.980469 70.726562 88.699219 71.425781 C 89.414062 72.125 90.386719 72.527344 91.40625 72.542969 Z M 91.445312 72.542969 "/>
</g>
</svg>
