<?xml version="1.0" encoding="UTF-8"?>
<svg xmlns="http://www.w3.org/2000/svg" xmlns:xlink="http://www.w3.org/1999/xlink" width="150px" height="150px" viewBox="0 0 150 150" version="1.1">
<g id="surface1">
<path style=" stroke:none;fill-rule:nonzero;fill:rgb(100%,100%,100%);fill-opacity:1;" d="M 135.5625 81.195312 L 117.289062 70.71875 L 114.140625 69.359375 L 39.394531 69.867188 L 39.394531 107.816406 L 135.5625 107.816406 Z M 135.5625 81.195312 "/>
<path style=" stroke:none;fill-rule:nonzero;fill:rgb(95.294118%,50.196081%,12.54902%);fill-opacity:1;" d="M 102.296875 104.324219 C 103.191406 101.253906 102.851562 98.445312 101.359375 96.359375 C 100 94.441406 97.699219 93.335938 94.929688 93.207031 L 42.503906 92.527344 C 42.164062 92.527344 41.867188 92.355469 41.695312 92.101562 C 41.523438 91.84375 41.480469 91.503906 41.566406 91.164062 C 41.734375 90.652344 42.246094 90.269531 42.800781 90.226562 L 95.695312 89.546875 C 101.957031 89.246094 108.769531 84.179688 111.15625 77.960938 L 114.179688 70.082031 C 114.308594 69.742188 114.347656 69.402344 114.265625 69.0625 C 110.859375 53.640625 97.105469 42.144531 80.664062 42.144531 C 65.503906 42.144531 52.640625 51.9375 48.042969 65.523438 C 44.921875 63.203125 41.050781 62.125 37.183594 62.5 C 29.898438 63.226562 24.066406 69.058594 23.339844 76.339844 C 23.171875 78.214844 23.300781 80.046875 23.726562 81.75 C 11.839844 82.089844 2.34375 91.800781 2.34375 103.769531 C 2.34375 104.832031 2.429688 105.898438 2.558594 106.960938 C 2.632812 107.472656 3.066406 107.847656 3.578125 107.855469 L 100.339844 107.855469 C 100.894531 107.855469 101.40625 107.472656 101.574219 106.917969 Z M 102.296875 104.324219 "/>
<path style=" stroke:none;fill-rule:nonzero;fill:rgb(98.039216%,68.235296%,25.098041%);fill-opacity:1;" d="M 118.996094 70.632812 C 118.527344 70.632812 118.015625 70.632812 117.546875 70.675781 C 117.203125 70.675781 116.90625 70.933594 116.78125 71.273438 L 114.734375 78.386719 C 113.84375 81.453125 114.183594 84.261719 115.671875 86.351562 C 117.035156 88.265625 119.335938 89.375 122.105469 89.5 L 133.261719 90.183594 C 133.605469 90.183594 133.902344 90.351562 134.074219 90.605469 C 134.242188 90.863281 134.285156 91.246094 134.199219 91.542969 C 134.03125 92.054688 133.519531 92.4375 132.964844 92.480469 L 121.335938 93.164062 C 115.03125 93.460938 108.261719 98.53125 105.875 104.75 L 105.023438 106.917969 C 104.855469 107.34375 105.152344 107.773438 105.621094 107.773438 L 145.570312 107.773438 C 146.039062 107.773438 146.464844 107.472656 146.589844 107.003906 C 147.273438 104.535156 147.65625 101.9375 147.65625 99.253906 C 147.65625 83.496094 134.792969 70.636719 118.996094 70.636719 "/>
</g>
</svg>
