<?xml version="1.0" encoding="UTF-8"?>
<svg xmlns="http://www.w3.org/2000/svg" xmlns:xlink="http://www.w3.org/1999/xlink" width="150px" height="150px" viewBox="0 0 150 150" version="1.1">
<g id="surface1">
<path style=" stroke:none;fill-rule:nonzero;fill:rgb(0%,0%,0%);fill-opacity:1;" d="M 75 1.722656 C 42.636719 1.722656 16.40625 27.953125 16.40625 60.316406 C 16.40625 92.679688 42.636719 118.910156 75 118.910156 C 107.363281 118.910156 133.59375 92.679688 133.59375 60.316406 C 133.59375 27.953125 107.363281 1.722656 75 1.722656 M 105.328125 20.742188 L 105.347656 20.675781 L 106.105469 17.835938 L 106.445312 18.085938 C 108.023438 19.257812 109.527344 20.519531 110.957031 21.863281 L 110.863281 22.164062 L 110.84375 22.230469 C 110.382812 23.605469 108.96875 24.421875 107.546875 24.128906 C 106.804688 23.976562 106.148438 23.535156 105.734375 22.898438 C 105.316406 22.261719 105.167969 21.488281 105.328125 20.742188 Z M 92.234375 26.144531 L 92.257812 26.078125 C 92.691406 24.613281 94.25 23.742188 95.757812 24.132812 C 97.25 24.554688 98.140625 26.082031 97.773438 27.585938 L 97.773438 27.65625 L 94.703125 38.984375 L 94.453125 38.78125 C 92.9375 37.65625 91.320312 36.675781 89.625 35.851562 Z M 82.070312 13.53125 L 82.09375 13.464844 L 83.46875 8.359375 L 83.878906 8.429688 C 85.617188 8.726562 87.359375 9.117188 89.050781 9.574219 L 87.609375 14.953125 L 87.589844 15.019531 C 87.128906 16.398438 85.714844 17.214844 84.292969 16.921875 C 83.546875 16.769531 82.894531 16.324219 82.476562 15.6875 C 82.0625 15.054688 81.914062 14.277344 82.070312 13.535156 Z M 60.832031 22.230469 L 60.851562 22.164062 L 64.46875 8.726562 L 64.859375 8.65625 C 66.660156 8.308594 68.480469 8.046875 70.304688 7.878906 C 70.402344 8.300781 70.394531 8.742188 70.285156 9.160156 L 70.261719 9.230469 L 66.371094 23.652344 L 66.351562 23.71875 C 65.894531 25.097656 64.476562 25.910156 63.054688 25.617188 C 62.308594 25.464844 61.65625 25.023438 61.242188 24.386719 C 60.824219 23.75 60.679688 22.976562 60.835938 22.230469 Z M 27.597656 53.128906 C 27.164062 54.59375 25.605469 55.464844 24.121094 55.074219 C 23.566406 54.941406 23.070312 54.636719 22.703125 54.207031 C 23.480469 47.476562 25.558594 40.964844 28.8125 35.023438 C 29.042969 35.023438 29.269531 35.046875 29.5 35.117188 C 31.003906 35.527344 31.90625 37.058594 31.535156 38.574219 L 31.515625 38.640625 L 27.625 53.0625 Z M 39.316406 61.003906 L 39.316406 61.070312 L 35.425781 75.492188 L 35.40625 75.558594 C 34.96875 77 33.484375 77.847656 31.996094 77.503906 C 30.460938 77.140625 29.523438 75.582031 29.890625 74.050781 L 29.890625 73.980469 L 33.78125 59.5625 L 33.800781 59.492188 C 34.234375 58.027344 35.792969 57.160156 37.304688 57.546875 C 38.796875 57.96875 39.6875 59.496094 39.320312 61.003906 Z M 40.4375 41.363281 C 38.90625 41 37.964844 39.441406 38.332031 37.90625 L 38.355469 37.839844 L 42.246094 23.421875 L 42.265625 23.351562 C 42.703125 21.886719 44.257812 21.015625 45.746094 21.40625 C 47.246094 21.808594 48.148438 23.332031 47.785156 24.839844 L 47.761719 24.929688 L 43.871094 39.351562 L 43.847656 39.417969 C 43.414062 40.859375 41.925781 41.707031 40.4375 41.363281 Z M 47.992188 90.597656 L 47.96875 90.664062 C 47.539062 92.105469 46.046875 92.953125 44.5625 92.609375 C 43.027344 92.246094 42.089844 90.6875 42.453125 89.15625 L 42.476562 89.085938 L 46.367188 74.667969 L 46.390625 74.574219 L 46.570312 74.140625 C 48.082031 75.449219 49.742188 76.578125 51.515625 77.503906 Z M 59.78125 99.410156 L 59.757812 99.476562 L 56.988281 109.800781 L 56.601562 109.640625 C 54.921875 109.019531 53.277344 108.3125 51.679688 107.511719 L 54.242188 97.992188 L 54.265625 97.921875 C 54.699219 96.433594 56.246094 95.570312 57.746094 95.976562 C 59.253906 96.367188 60.148438 97.898438 59.78125 99.410156 Z M 75.777344 92.109375 L 75.710938 92.429688 L 75.710938 92.496094 L 71.820312 106.917969 L 71.796875 106.984375 C 71.339844 108.363281 69.921875 109.179688 68.5 108.886719 C 66.953125 108.5625 65.960938 107.046875 66.28125 105.496094 L 66.28125 105.429688 L 70.171875 91.007812 L 70.191406 90.941406 C 70.636719 89.445312 72.191406 88.582031 73.695312 88.996094 C 74.472656 89.199219 75.113281 89.726562 75.480469 90.4375 L 75.570312 90.851562 L 75.710938 91.511719 L 75.800781 91.992188 Z M 113.839844 95.839844 C 105.691406 104.742188 94.523438 110.832031 81.957031 112.503906 L 81.84375 111.746094 L 81.636719 110.234375 L 81.453125 109.136719 L 81.25 107.695312 L 80.972656 105.933594 L 80.859375 105.246094 L 80.609375 103.574219 L 80.449219 102.589844 L 80.242188 101.308594 L 80.035156 100.074219 L 79.828125 98.882812 L 79.625 97.714844 L 79.441406 96.570312 L 79.234375 95.472656 L 79.050781 94.421875 L 78.914062 93.640625 L 78.753906 92.886719 L 78.660156 92.40625 L 78.480469 91.445312 L 78.34375 90.757812 L 78.179688 89.910156 L 78.042969 89.316406 L 77.929688 88.742188 L 77.816406 88.195312 L 77.746094 87.828125 L 77.585938 87.140625 L 77.359375 86.132812 L 77.265625 85.8125 L 77.152344 85.355469 L 77.0625 84.921875 L 76.945312 84.488281 L 76.832031 84.074219 L 76.765625 83.824219 L 76.648438 83.433594 L 76.558594 83.066406 L 76.488281 82.816406 L 76.398438 82.585938 L 76.328125 82.378906 L 76.238281 82.0625 L 76.167969 81.832031 L 76.121094 81.695312 C 76.011719 81.328125 75.875 80.96875 75.710938 80.617188 L 75.640625 80.480469 L 76.167969 79.109375 L 74.085938 79.175781 L 73.515625 79.199219 C 54.605469 79.589844 42.40625 71.554688 42.40625 58.964844 C 42.40625 45.621094 55.683594 34.886719 72.710938 34.886719 C 80.90625 34.886719 87.929688 37.152344 93.472656 41.480469 C 98.1875 45.164062 101.640625 50.246094 103.425781 55.988281 L 103.472656 56.128906 L 103.519531 56.289062 L 103.609375 56.585938 L 103.746094 57.132812 L 104.113281 58.414062 L 104.5 59.878906 L 105.167969 62.304688 L 106.21875 66.152344 L 107.910156 72.46875 L 109.832031 79.65625 L 112.925781 91.214844 L 114.09375 95.5625 Z M 116.726562 38.574219 L 116.703125 38.640625 L 112.8125 53.0625 L 112.789062 53.128906 C 112.355469 54.570312 110.867188 55.417969 109.378906 55.074219 C 107.847656 54.710938 106.90625 53.152344 107.273438 51.617188 L 107.296875 51.550781 L 111.1875 37.132812 L 111.1875 37.0625 C 111.648438 35.585938 113.191406 34.730469 114.6875 35.117188 C 116.1875 35.535156 117.085938 37.0625 116.726562 38.574219 Z M 126.566406 57.800781 L 122.652344 72.21875 L 122.652344 72.289062 C 122.453125 73.023438 121.96875 73.648438 121.308594 74.027344 C 120.648438 74.402344 119.863281 74.503906 119.128906 74.300781 C 118.394531 74.101562 117.769531 73.617188 117.390625 72.957031 C 117.011719 72.296875 116.914062 71.511719 117.113281 70.777344 L 117.136719 70.707031 L 121.027344 56.289062 L 121.046875 56.21875 C 121.484375 54.753906 123.039062 53.886719 124.527344 54.273438 C 126.027344 54.675781 126.929688 56.199219 126.5625 57.707031 Z M 80.035156 48.183594 C 80.035156 50.207031 78.394531 51.847656 76.375 51.847656 C 74.351562 51.847656 72.710938 50.207031 72.710938 48.183594 C 72.710938 46.164062 74.351562 44.523438 76.375 44.523438 C 78.394531 44.523438 80.035156 46.164062 80.035156 48.183594 M 131.09375 148.808594 C 127.679688 148.808594 124.734375 148.277344 122.261719 147.199219 C 119.785156 146.121094 117.878906 144.523438 116.53125 142.378906 C 115.199219 140.234375 114.527344 137.523438 114.527344 134.25 C 114.527344 130.976562 115.199219 128.277344 116.53125 126.125 C 117.867188 123.980469 119.773438 122.378906 122.261719 121.324219 C 124.734375 120.269531 127.679688 119.746094 131.09375 119.746094 C 134.503906 119.746094 137.449219 120.269531 139.921875 121.324219 C 142.398438 122.378906 144.304688 123.976562 145.648438 126.125 C 146.984375 128.265625 147.65625 130.976562 147.65625 134.25 C 147.65625 137.527344 146.984375 140.222656 145.648438 142.378906 C 144.316406 144.523438 142.410156 146.132812 139.921875 147.199219 C 137.449219 148.277344 134.492188 148.808594 131.09375 148.808594 M 131.09375 142.378906 C 132.710938 142.378906 134.058594 142.078125 135.125 141.484375 C 136.167969 140.917969 137.003906 140.03125 137.5 138.953125 C 138.015625 137.867188 138.269531 136.5625 138.269531 135.050781 L 138.269531 133.527344 C 138.269531 132.007812 138.015625 130.699219 137.5 129.601562 C 137.015625 128.515625 136.175781 127.625 135.125 127.074219 C 134.046875 126.496094 132.703125 126.199219 131.09375 126.199219 C 129.480469 126.199219 128.082031 126.488281 127.027344 127.074219 C 125.988281 127.632812 125.164062 128.523438 124.683594 129.601562 C 124.167969 130.710938 123.914062 132.023438 123.914062 133.527344 L 123.914062 135.050781 C 123.914062 136.566406 124.167969 137.867188 124.683594 138.957031 C 125.175781 140.023438 125.996094 140.910156 127.027344 141.484375 C 128.082031 142.078125 129.4375 142.378906 131.09375 142.378906 M 80.695312 148.179688 L 80.695312 120.382812 L 88.183594 120.382812 L 88.8125 124.660156 L 89.238281 124.660156 C 90.046875 123.574219 91.035156 122.636719 92.160156 121.890625 C 93.273438 121.164062 94.492188 120.621094 95.777344 120.277344 C 97.078125 119.925781 98.410156 119.753906 99.789062 119.753906 C 102.140625 119.753906 104.117188 120.148438 105.71875 120.9375 C 107.292969 121.699219 108.570312 122.960938 109.355469 124.523438 C 110.175781 126.125 110.589844 128.148438 110.589844 130.613281 L 110.589844 148.179688 L 101.367188 148.179688 L 101.367188 131.882812 C 101.367188 131.039062 101.25 130.292969 101.023438 129.640625 C 100.828125 129.039062 100.496094 128.488281 100.054688 128.03125 C 99.628906 127.605469 99.09375 127.296875 98.445312 127.082031 C 97.738281 126.863281 97 126.753906 96.257812 126.761719 C 95.0625 126.761719 93.984375 127.027344 93.015625 127.550781 C 92.078125 128.050781 91.285156 128.785156 90.722656 129.683594 C 90.15625 130.582031 89.878906 131.605469 89.878906 132.765625 L 89.878906 148.167969 L 80.707031 148.167969 Z M 60.25 148.808594 C 56.773438 148.808594 53.773438 148.285156 51.257812 147.253906 C 48.738281 146.21875 46.808594 144.628906 45.453125 142.472656 C 44.101562 140.328125 43.425781 137.589844 43.425781 134.25 C 43.429688 129.246094 44.101562 128.277344 45.433594 126.125 C 46.765625 123.980469 48.664062 122.378906 51.128906 121.324219 C 53.59375 120.269531 56.503906 119.746094 59.886719 119.746094 C 63.265625 119.746094 66.265625 120.257812 68.695312 121.269531 C 71.117188 122.292969 72.972656 123.851562 74.230469 125.964844 C 75.5 128.074219 76.128906 130.761719 76.128906 134.039062 L 76.128906 136.097656 L 52.867188 136.097656 C 52.941406 137.566406 53.242188 138.804688 53.796875 139.789062 C 54.339844 140.769531 55.160156 141.515625 56.25 142.003906 C 57.335938 142.496094 58.691406 142.742188 60.3125 142.742188 C 61.167969 142.75 62.015625 142.640625 62.839844 142.421875 C 63.566406 142.226562 64.261719 141.925781 64.898438 141.523438 C 65.5 141.140625 65.964844 140.679688 66.296875 140.148438 C 66.628906 139.625 66.820312 139.007812 66.851562 138.304688 L 76.023438 138.304688 C 76.023438 139.957031 75.652344 141.429688 74.914062 142.730469 C 74.179688 144.03125 73.113281 145.128906 71.726562 146.027344 C 70.339844 146.921875 68.675781 147.605469 66.746094 148.085938 C 64.8125 148.554688 62.648438 148.800781 60.257812 148.800781 Z M 52.921875 131.136719 L 66.476562 131.136719 C 66.476562 130.261719 66.328125 129.496094 66.03125 128.84375 C 65.734375 128.195312 65.292969 127.625 64.738281 127.179688 C 64.144531 126.707031 63.464844 126.359375 62.734375 126.15625 C 61.910156 125.925781 61.058594 125.808594 60.207031 125.816406 C 58.734375 125.816406 57.476562 126.027344 56.460938 126.445312 C 55.4375 126.871094 54.636719 127.46875 54.0625 128.269531 C 53.484375 129.058594 53.101562 130.015625 52.929688 131.136719 Z M 2.34375 148.179688 L 2.34375 111.949219 L 20.058594 111.949219 C 24.242188 111.949219 27.824219 112.621094 30.789062 113.953125 C 33.765625 115.289062 36.035156 117.304688 37.613281 119.992188 C 39.195312 122.679688 39.992188 126.027344 39.992188 130.039062 C 39.992188 134.050781 39.203125 137.398438 37.613281 140.085938 C 36.027344 142.773438 33.753906 144.800781 30.789062 146.15625 C 27.8125 147.507812 24.242188 148.183594 20.058594 148.183594 Z M 12.410156 140.480469 L 19.683594 140.480469 C 21.230469 140.480469 22.617188 140.265625 23.855469 139.851562 C 25.082031 139.425781 26.128906 138.816406 26.992188 138.003906 C 27.855469 137.195312 28.503906 136.191406 28.941406 134.996094 C 29.378906 133.800781 29.605469 132.449219 29.605469 130.933594 L 29.605469 129.195312 C 29.605469 127.648438 29.378906 126.285156 28.941406 125.109375 C 28.53125 123.972656 27.863281 122.945312 26.992188 122.101562 C 26.128906 121.28125 25.082031 120.652344 23.855469 120.226562 C 22.628906 119.796875 21.230469 119.597656 19.683594 119.597656 L 12.410156 119.597656 Z M 12.410156 140.480469 "/>
</g>
</svg>
