<?xml version="1.0" encoding="UTF-8"?>
<svg xmlns="http://www.w3.org/2000/svg" xmlns:xlink="http://www.w3.org/1999/xlink" width="150px" height="150px" viewBox="0 0 150 150" version="1.1">
<g id="surface1">
<path style=" stroke:none;fill-rule:nonzero;fill:rgb(0%,50.196081%,100%);fill-opacity:1;" d="M 75.167969 120.65625 L 45.984375 120.65625 L 45.984375 92.019531 L 75.167969 92.019531 Z M 45.984375 143.121094 L 23.875 143.121094 L 23.875 120.652344 L 45.984375 120.652344 Z M 23.875 120.652344 L 5.308594 120.652344 L 5.308594 102.148438 L 23.875 102.148438 Z M 74.726562 149.734375 L 74.726562 120.652344 C 105.675781 120.652344 129.554688 90.253906 117.617188 58.089844 C 113.191406 46.195312 103.910156 36.503906 91.53125 32.097656 C 59.691406 20.644531 29.1875 44.433594 29.1875 74.832031 L 0 74.832031 C 0 26.371094 47.308594 -11.960938 99.046875 3.898438 C 121.597656 10.949219 139.28125 28.574219 146.355469 51.042969 C 162.269531 102.589844 123.800781 149.730469 74.726562 149.730469 Z M 74.726562 149.734375 "/>
</g>
</svg>
