<?xml version="1.0" encoding="UTF-8"?>
<svg xmlns="http://www.w3.org/2000/svg" xmlns:xlink="http://www.w3.org/1999/xlink" width="150px" height="150px" viewBox="0 0 150 150" version="1.1">
<g id="surface1">
<path style=" stroke:none;fill-rule:nonzero;fill:rgb(13.725491%,58.823532%,92.941177%);fill-opacity:1;" d="M 35.15625 0 L 114.84375 0 C 134.261719 0 150 15.738281 150 35.15625 L 150 114.84375 C 150 134.261719 134.261719 150 114.84375 150 L 35.15625 150 C 15.738281 150 0 134.261719 0 114.84375 L 0 35.15625 C 0 15.738281 15.738281 0 35.15625 0 Z M 35.15625 0 "/>
<path style=" stroke:none;fill-rule:nonzero;fill:rgb(100%,100%,100%);fill-opacity:1;" d="M 82.726562 71.554688 L 94.867188 71.554688 L 94.867188 60.574219 L 82.726562 60.574219 Z M 68.277344 71.554688 L 80.414062 71.554688 L 80.414062 60.574219 L 68.277344 60.574219 Z M 54.113281 71.554688 L 66.253906 71.554688 L 66.253906 60.574219 L 54.113281 60.574219 Z M 39.953125 71.554688 L 51.804688 71.554688 L 51.804688 60.574219 L 39.953125 60.574219 Z M 25.5 71.554688 L 37.640625 71.554688 L 37.640625 60.574219 L 25.5 60.574219 Z M 39.953125 58.261719 L 51.800781 58.261719 L 51.800781 47.28125 L 39.953125 47.28125 Z M 54.113281 58.261719 L 66.253906 58.261719 L 66.253906 47.28125 L 54.113281 47.28125 Z M 68.277344 58.261719 L 80.414062 58.261719 L 80.414062 47.28125 L 68.277344 47.28125 Z M 68.277344 44.964844 L 80.414062 44.964844 L 80.414062 33.984375 L 68.277344 33.984375 Z M 133.59375 66.644531 C 133.59375 66.644531 128.390625 61.730469 117.699219 63.464844 C 116.542969 55.082031 107.582031 50.167969 107.582031 50.167969 C 107.582031 50.167969 99.199219 60.285156 105.269531 71.558594 C 103.535156 72.425781 100.644531 73.582031 96.3125 73.582031 L 16.832031 73.582031 C 15.386719 79.070312 15.386719 115.488281 55.269531 115.488281 C 83.882812 115.488281 105.269531 102.191406 115.386719 77.914062 C 130.414062 79.070312 133.59375 66.644531 133.59375 66.644531 "/>
</g>
</svg>
