<?xml version="1.0" encoding="UTF-8"?>
<svg xmlns="http://www.w3.org/2000/svg" xmlns:xlink="http://www.w3.org/1999/xlink" width="150px" height="150px" viewBox="0 0 150 150" version="1.1">
<defs>
<clipPath id="clip1">
  <path d="M 38.25 29.625 L 111.464844 29.625 L 111.464844 112 L 38.25 112 Z M 38.25 29.625 "/>
</clipPath>
</defs>
<g id="surface1">
<path style=" stroke:none;fill-rule:nonzero;fill:rgb(93.333334%,93.333334%,88.235295%);fill-opacity:1;" d="M 33.75 0 L 116.25 0 C 134.890625 0 150 15.109375 150 33.75 L 150 116.25 C 150 134.890625 134.890625 150 116.25 150 L 33.75 150 C 15.109375 150 0 134.890625 0 116.25 L 0 33.75 C 0 15.109375 15.109375 0 33.75 0 Z M 33.75 0 "/>
<g clip-path="url(#clip1)" clip-rule="nonzero">
<path style=" stroke:none;fill-rule:nonzero;fill:rgb(6.666667%,6.666667%,6.666667%);fill-opacity:1;" d="M 111.40625 93.402344 L 111.40625 111.839844 L 38.535156 111.839844 L 38.535156 56.203125 C 50.082031 53.71875 61.542969 50.511719 72.6875 46.585938 C 85.992188 41.9375 98.898438 36.40625 111.40625 29.910156 L 111.40625 50.433594 C 100.824219 55.5625 89.839844 60.054688 78.699219 63.980469 C 66.113281 68.390625 53.207031 71.917969 40.140625 74.644531 L 40.140625 74.804688 C 64.269531 72.558594 87.996094 68.628906 111.40625 63.179688 L 111.40625 82.019531 C 87.996094 87.308594 64.1875 91.078125 40.140625 93.242188 L 40.140625 93.402344 Z M 111.40625 93.402344 "/>
</g>
</g>
</svg>
