<?xml version="1.0" encoding="UTF-8"?>
<svg xmlns="http://www.w3.org/2000/svg" xmlns:xlink="http://www.w3.org/1999/xlink" width="150px" height="150px" viewBox="0 0 150 150" version="1.1">
<g id="surface1">
<path style=" stroke:none;fill-rule:nonzero;fill:rgb(90.196079%,29.019609%,9.803922%);fill-opacity:1;" d="M 61.742188 13.257812 L 55.21875 19.78125 L 73.546875 38.109375 C 77.886719 35.960938 83.03125 36.210938 87.144531 38.769531 C 91.257812 41.328125 93.753906 45.828125 93.75 50.671875 C 93.699219 52.796875 93.203125 54.890625 92.296875 56.8125 L 101.953125 66.1875 C 107.175781 63.167969 113.808594 64.289062 117.75 68.859375 C 120.449219 71.445312 121.945312 75.042969 121.875 78.78125 C 121.878906 82.476562 120.4375 86.023438 117.863281 88.667969 C 115.242188 91.40625 111.601562 92.921875 107.8125 92.859375 C 104.066406 92.917969 100.460938 91.445312 97.828125 88.78125 C 93.273438 84.808594 92.175781 78.167969 95.203125 72.9375 L 85.828125 63.28125 C 85.355469 63.496094 84.871094 63.683594 84.375 63.84375 L 84.375 93.75 C 87.097656 94.71875 89.453125 96.503906 91.125 98.859375 C 92.832031 101.203125 93.75 104.023438 93.75 106.921875 C 93.824219 110.675781 92.332031 114.289062 89.632812 116.898438 C 87.082031 119.445312 83.640625 120.910156 80.035156 120.980469 C 74.71875 121.144531 69.765625 118.277344 67.265625 113.582031 C 64.765625 108.886719 65.144531 103.179688 68.25 98.859375 C 69.921875 96.503906 72.277344 94.71875 75 93.75 L 75 63.84375 C 72.273438 62.886719 69.914062 61.097656 68.25 58.734375 C 66.539062 56.394531 65.617188 53.570312 65.625 50.671875 C 65.621094 48.539062 66.117188 46.4375 67.078125 44.53125 L 48.796875 26.25 L 13.269531 61.742188 C 5.941406 69.066406 5.941406 80.941406 13.265625 88.265625 L 61.742188 136.742188 C 69.066406 144.0625 80.933594 144.0625 88.257812 136.742188 L 136.742188 88.257812 C 144.0625 80.933594 144.0625 69.066406 136.742188 61.742188 L 88.257812 13.257812 C 80.933594 5.9375 69.066406 5.9375 61.742188 13.257812 "/>
</g>
</svg>
