<?xml version="1.0" encoding="UTF-8"?>
<svg xmlns="http://www.w3.org/2000/svg" xmlns:xlink="http://www.w3.org/1999/xlink" width="150px" height="150px" viewBox="0 0 150 150" version="1.1">
<g id="surface1">
<path style=" stroke:none;fill-rule:nonzero;fill:rgb(0%,0%,0%);fill-opacity:1;" d="M 75.007812 12.5 C 40.476562 12.5 12.507812 40.46875 12.507812 75 C 12.484375 101.910156 29.703125 125.808594 55.238281 134.300781 C 58.363281 134.84375 59.539062 132.96875 59.539062 131.324219 C 59.539062 129.84375 59.457031 124.925781 59.457031 119.6875 C 43.757812 122.582031 39.695312 115.863281 38.445312 112.34375 C 37.738281 110.542969 34.695312 105 32.039062 103.511719 C 29.851562 102.34375 26.726562 99.449219 31.957031 99.375 C 36.882812 99.292969 40.394531 103.90625 41.570312 105.78125 C 47.195312 115.230469 56.175781 112.574219 59.769531 110.9375 C 60.320312 106.875 61.957031 104.144531 63.757812 102.582031 C 49.851562 101.019531 35.320312 95.625 35.320312 71.71875 C 35.320312 64.917969 37.738281 59.300781 41.726562 54.925781 C 41.101562 53.363281 38.914062 46.957031 42.351562 38.363281 C 42.351562 38.363281 47.582031 36.71875 59.539062 44.761719 C 64.625 43.355469 69.882812 42.644531 75.164062 42.65625 C 80.476562 42.65625 85.789062 43.355469 90.789062 44.761719 C 102.742188 36.636719 107.976562 38.363281 107.976562 38.363281 C 111.414062 46.957031 109.226562 53.363281 108.601562 54.925781 C 112.582031 59.300781 115.007812 64.84375 115.007812 71.71875 C 115.007812 95.707031 100.398438 101.019531 86.492188 102.582031 C 88.757812 104.53125 90.710938 108.28125 90.710938 114.144531 C 90.710938 122.5 90.632812 129.21875 90.632812 131.332031 C 90.632812 132.96875 91.804688 134.917969 94.929688 134.292969 C 120.363281 125.695312 137.484375 101.84375 137.5 75 C 137.5 40.46875 109.53125 12.5 75 12.5 "/>
</g>
</svg>
