<?xml version="1.0" encoding="UTF-8"?>
<svg xmlns="http://www.w3.org/2000/svg" xmlns:xlink="http://www.w3.org/1999/xlink" width="150px" height="150px" viewBox="0 0 150 150" version="1.1">
<g id="surface1">
<path style=" stroke:none;fill-rule:nonzero;fill:rgb(89.803922%,22.352941%,20.784314%);fill-opacity:1;" d="M 138.429688 61.328125 L 138.257812 60.835938 L 120.394531 12.449219 C 120.042969 11.507812 119.398438 10.703125 118.554688 10.152344 C 117.503906 9.457031 116.210938 9.21875 114.980469 9.5 C 113.75 9.777344 112.6875 10.550781 112.039062 11.632812 C 111.785156 12.039062 111.589844 12.484375 111.46875 12.945312 L 99.414062 46.875 L 50.585938 46.875 L 38.53125 12.945312 C 38.21875 11.714844 37.425781 10.660156 36.324219 10.023438 C 35.226562 9.386719 33.914062 9.222656 32.691406 9.566406 C 32.25 9.699219 31.828125 9.894531 31.445312 10.148438 C 30.601562 10.699219 29.957031 11.503906 29.605469 12.449219 L 11.75 60.84375 L 11.5625 61.328125 C 6.265625 75.578125 10.699219 91.625 22.570312 101.128906 L 22.640625 101.183594 L 22.789062 101.304688 L 49.964844 122.453125 L 63.445312 133.03125 L 71.632812 139.460938 C 73.589844 141.011719 76.355469 141.011719 78.308594 139.460938 L 86.5 133.03125 L 99.980469 122.453125 L 127.34375 101.183594 L 127.421875 101.125 C 139.292969 91.621094 143.730469 75.578125 138.4375 61.328125 Z M 138.429688 61.328125 "/>
<path style=" stroke:none;fill-rule:nonzero;fill:rgb(93.725491%,42.352942%,0%);fill-opacity:1;" d="M 138.429688 61.328125 L 138.257812 60.835938 C 129.507812 62.707031 121.292969 66.542969 114.242188 72.054688 L 75.023438 102.851562 L 99.992188 122.453125 L 127.363281 101.183594 L 127.4375 101.125 C 139.300781 91.617188 143.730469 75.574219 138.429688 61.328125 "/>
<path style=" stroke:none;fill-rule:nonzero;fill:rgb(97.647059%,65.882355%,14.509805%);fill-opacity:1;" d="M 49.964844 122.453125 L 63.445312 133.03125 L 71.632812 139.460938 C 73.589844 141.011719 76.355469 141.011719 78.308594 139.460938 L 86.5 133.03125 L 99.980469 122.453125 L 75 102.859375 Z M 49.964844 122.453125 "/>
<path style=" stroke:none;fill-rule:nonzero;fill:rgb(93.725491%,42.352942%,0%);fill-opacity:1;" d="M 35.757812 72.050781 C 28.707031 66.546875 20.5 62.71875 11.757812 60.847656 L 11.570312 61.328125 C 6.269531 75.578125 10.703125 91.621094 22.570312 101.128906 L 22.640625 101.183594 L 22.789062 101.304688 L 49.964844 122.453125 L 74.953125 102.859375 Z M 35.757812 72.050781 "/>
</g>
</svg>
