<?xml version="1.0" encoding="UTF-8"?>
<svg xmlns="http://www.w3.org/2000/svg" xmlns:xlink="http://www.w3.org/1999/xlink" width="150px" height="150px" viewBox="0 0 150 150" version="1.1">
<g id="surface1">
<path style="fill:none;stroke-width:1;stroke-linecap:round;stroke-linejoin:round;stroke:rgb(49.019608%,76.862746%,89.411765%);stroke-opacity:1;stroke-miterlimit:4;" d="M 7.5 7.5 L 5.53 8.28 C 5.33 8.43 4.79 8.61 4.33 8.08 C 3.926667 7.582917 3.590417 7.035 3.33 6.45 " transform="matrix(9.375,0,0,9.375,0,0)"/>
<path style="fill:none;stroke-width:1;stroke-linecap:round;stroke-linejoin:round;stroke:rgb(49.019608%,76.862746%,89.411765%);stroke-opacity:1;stroke-miterlimit:4;" d="M 11.43 2.98 C 11.97 2.5 15.5 1.59 15.5 5.08 C 15.5 7.42 13.9 8.61 12.74 9.58 C 11.99 10.19 11.39 10.86 11.39 13.5 L 9.88 13.5 C 9.88 12.21 7.22 11.18 6.71 13.5 L 5.38 13.5 C 5.38 12.21 2.73 11.18 2.22 13.5 L 0.7 13.5 C 0.29 11.92 0.22 8.3 3.33 6.45 C 3.18 6.2 3.06 5.43 3.76 5.15 C 4.63 4.81 7.53 3.81 10.27 5.27 C 13.01 6.73 15.28 6.39 15.41 6.01 " transform="matrix(9.375,0,0,9.375,0,0)"/>
</g>
</svg>
