<?xml version="1.0" encoding="UTF-8"?>
<svg xmlns="http://www.w3.org/2000/svg" xmlns:xlink="http://www.w3.org/1999/xlink" width="150px" height="150px" viewBox="0 0 150 150" version="1.1">
<g id="surface1">
<path style=" stroke:none;fill-rule:nonzero;fill:rgb(94.117647%,85.882354%,30.980393%);fill-opacity:1;" d="M 1.648438 1.648438 L 148.351562 1.648438 L 148.351562 148.351562 L 1.648438 148.351562 Z M 1.648438 1.648438 "/>
<path style=" stroke:none;fill-rule:nonzero;fill:rgb(19.607843%,20%,18.82353%);fill-opacity:1;" d="M 136.34375 113.363281 C 135.269531 106.671875 130.90625 101.046875 117.980469 95.808594 C 113.488281 93.742188 108.480469 92.265625 106.988281 88.863281 C 106.460938 86.882812 106.390625 85.765625 106.726562 84.566406 C 107.6875 80.675781 112.332031 79.464844 116.011719 80.578125 C 118.382812 81.375 120.628906 83.199219 121.980469 86.117188 C 128.3125 82.015625 128.296875 82.042969 132.71875 79.226562 C 131.101562 76.714844 130.238281 75.558594 129.175781 74.484375 C 125.371094 70.234375 120.183594 68.042969 111.886719 68.210938 L 107.5625 68.769531 C 103.421875 69.816406 99.476562 71.988281 97.160156 74.902344 C 90.214844 82.785156 92.195312 96.574219 100.648438 102.25 C 108.972656 108.496094 121.203125 109.917969 122.761719 115.761719 C 124.285156 122.914062 117.507812 125.230469 110.769531 124.410156 C 105.804688 123.375 103.046875 120.851562 100.0625 116.265625 C 94.566406 119.445312 94.566406 119.445312 88.917969 122.691406 C 90.257812 125.621094 91.664062 126.945312 93.910156 129.484375 C 104.539062 140.261719 131.128906 139.734375 135.898438 123.417969 C 136.09375 122.859375 137.375 119.121094 136.34375 113.363281 M 81.402344 69.074219 L 67.679688 69.074219 L 67.625 104.546875 C 67.625 112.09375 68.011719 119.011719 66.785156 121.128906 C 64.777344 125.300781 59.578125 124.78125 57.207031 123.972656 C 54.792969 122.789062 53.566406 121.101562 52.144531 118.71875 C 51.753906 118.035156 51.460938 117.503906 51.363281 117.464844 L 40.207031 124.296875 C 42.0625 128.101562 44.796875 131.40625 48.296875 133.554688 C 53.523438 136.691406 60.550781 137.65625 67.902344 135.96875 C 72.6875 134.574219 76.8125 131.6875 78.972656 127.292969 C 82.097656 121.535156 81.429688 114.5625 81.398438 106.851562 C 81.46875 94.273438 81.402344 81.695312 81.402344 69.074219 "/>
</g>
</svg>
