<?xml version="1.0" encoding="UTF-8"?>
<svg xmlns="http://www.w3.org/2000/svg" xmlns:xlink="http://www.w3.org/1999/xlink" width="150px" height="150px" viewBox="0 0 150 150" version="1.1">
<g id="surface1">
<path style=" stroke:none;fill-rule:nonzero;fill:rgb(95.686275%,94.901961%,92.941177%);fill-opacity:1;" d="M 35.15625 0 L 114.84375 0 C 134.261719 0 150 15.738281 150 35.15625 L 150 114.84375 C 150 134.261719 134.261719 150 114.84375 150 L 35.15625 150 C 15.738281 150 0 134.261719 0 114.84375 L 0 35.15625 C 0 15.738281 15.738281 0 35.15625 0 Z M 35.15625 0 "/>
<path style=" stroke:none;fill-rule:nonzero;fill:rgb(30.588236%,47.058824%,58.823532%);fill-opacity:1;" d="M 59.550781 107.003906 C 59.550781 107.003906 55.050781 109.742188 62.683594 110.523438 C 71.898438 111.699219 76.769531 111.503906 86.945312 109.546875 C 86.945312 109.546875 89.683594 111.3125 93.402344 112.679688 C 70.507812 122.460938 41.546875 112.09375 59.550781 107.003906 M 56.617188 94.285156 C 56.617188 94.285156 51.722656 98.003906 59.355469 98.785156 C 69.332031 99.761719 77.164062 99.960938 90.664062 97.222656 C 90.664062 97.222656 92.425781 99.179688 95.359375 100.15625 C 67.773438 108.375 36.855469 100.9375 56.617188 94.289062 Z M 110.621094 116.59375 C 110.621094 116.59375 113.949219 119.332031 106.902344 121.484375 C 93.792969 125.398438 51.917969 126.574219 40.179688 121.484375 C 36.074219 119.722656 43.898438 117.175781 46.441406 116.789062 C 48.984375 116.203125 50.355469 116.203125 50.355469 116.203125 C 45.855469 113.070312 20.414062 122.660156 37.4375 125.417969 C 84.203125 133.050781 122.753906 122.089844 110.621094 116.613281 Z M 61.703125 80.976562 C 61.703125 80.976562 40.375 86.066406 54.070312 87.824219 C 59.941406 88.605469 71.484375 88.414062 82.246094 87.628906 C 91.050781 86.847656 99.878906 85.28125 99.878906 85.28125 C 99.878906 85.28125 96.746094 86.652344 94.59375 88.019531 C 72.855469 93.699219 31.179688 91.15625 43.113281 85.285156 C 53.292969 80.394531 61.703125 80.976562 61.703125 80.976562 M 99.855469 102.308594 C 121.773438 90.957031 111.597656 80 104.554688 81.371094 C 102.789062 81.761719 102.007812 82.152344 102.007812 82.152344 C 102.007812 82.152344 102.597656 80.976562 103.964844 80.589844 C 117.859375 75.695312 128.816406 95.265625 99.46875 102.894531 C 99.46875 102.894531 99.664062 102.699219 99.855469 102.308594 Z M 63.855469 133.222656 C 84.988281 134.589844 117.273438 132.4375 118.058594 122.457031 C 118.058594 122.457031 116.496094 126.371094 100.644531 129.304688 C 82.640625 132.632812 60.332031 132.242188 47.222656 130.085938 C 47.222656 130.085938 49.964844 132.433594 63.855469 133.21875 Z M 63.855469 133.222656 "/>
<path style=" stroke:none;fill-rule:nonzero;fill:rgb(96.078432%,50.980395%,9.803922%);fill-opacity:1;" d="M 86.535156 16.40625 C 86.535156 16.40625 98.664062 28.734375 74.988281 47.320312 C 56.007812 62.386719 70.683594 70.996094 74.988281 80.777344 C 63.835938 70.800781 55.816406 61.992188 61.292969 53.773438 C 69.335938 41.648438 91.441406 35.78125 86.535156 16.40625 M 80.273438 72.5625 C 85.945312 79.019531 78.710938 84.890625 78.710938 84.890625 C 78.710938 84.890625 93.191406 77.457031 86.539062 68.257812 C 80.472656 59.453125 75.777344 55.148438 101.214844 40.46875 C 101.214844 40.46875 61.101562 50.449219 80.277344 72.558594 Z M 80.273438 72.5625 "/>
</g>
</svg>
