<?xml version="1.0" encoding="UTF-8"?>
<svg xmlns="http://www.w3.org/2000/svg" xmlns:xlink="http://www.w3.org/1999/xlink" width="150px" height="150px" viewBox="0 0 150 150" version="1.1">
<defs>
<linearGradient id="linear0" gradientUnits="userSpaceOnUse" x1="55.992001" y1="41.491001" x2="90.685997" y2="30.177" gradientTransform="matrix(0.585938,0,0,0.585938,0,0)">
<stop offset="0" style="stop-color:rgb(96.470588%,60%,13.72549%);stop-opacity:1;"/>
<stop offset="0.312" style="stop-color:rgb(96.862745%,60.392157%,13.72549%);stop-opacity:1;"/>
<stop offset="0.838" style="stop-color:rgb(91.372549%,47.058824%,14.901961%);stop-opacity:1;"/>
</linearGradient>
<linearGradient id="linear1" gradientUnits="userSpaceOnUse" x1="53.254002" y1="231.876999" x2="95.822998" y2="62.870998" gradientTransform="matrix(0.585938,0,0,0.585938,0,0)">
<stop offset="0.323" style="stop-color:rgb(61.960784%,12.54902%,39.215686%);stop-opacity:1;"/>
<stop offset="0.63" style="stop-color:rgb(78.823529%,12.54902%,21.568627%);stop-opacity:1;"/>
<stop offset="0.751" style="stop-color:rgb(80.392157%,13.72549%,20.784314%);stop-opacity:1;"/>
<stop offset="1" style="stop-color:rgb(91.372549%,47.058824%,14.901961%);stop-opacity:1;"/>
</linearGradient>
<linearGradient id="linear2" gradientUnits="userSpaceOnUse" x1="91.431" y1="226.554001" x2="119.396004" y2="90.357002" gradientTransform="matrix(0.585938,0,0,0.585938,0,0)">
<stop offset="0" style="stop-color:rgb(15.686275%,14.901961%,38.431373%);stop-opacity:1;"/>
<stop offset="0.095" style="stop-color:rgb(40%,18.039216%,55.294118%);stop-opacity:1;"/>
<stop offset="0.788" style="stop-color:rgb(62.352941%,12.54902%,39.215686%);stop-opacity:1;"/>
<stop offset="0.949" style="stop-color:rgb(80.392157%,12.54902%,19.607843%);stop-opacity:1;"/>
</linearGradient>
<linearGradient id="linear3" gradientUnits="userSpaceOnUse" x1="60.553001" y1="222.638" x2="122.449997" y2="72.125" gradientTransform="matrix(0.585938,0,0,0.585938,0,0)">
<stop offset="0.323" style="stop-color:rgb(61.960784%,12.54902%,39.215686%);stop-opacity:1;"/>
<stop offset="0.63" style="stop-color:rgb(78.823529%,12.54902%,21.568627%);stop-opacity:1;"/>
<stop offset="0.751" style="stop-color:rgb(80.392157%,13.72549%,20.784314%);stop-opacity:1;"/>
<stop offset="1" style="stop-color:rgb(91.372549%,47.058824%,14.901961%);stop-opacity:1;"/>
</linearGradient>
<linearGradient id="linear4" gradientUnits="userSpaceOnUse" x1="76.019997" y1="215.682999" x2="125.862" y2="153.584" gradientTransform="matrix(0.585938,0,0,0.585938,0,0)">
<stop offset="0" style="stop-color:rgb(15.686275%,14.901961%,38.431373%);stop-opacity:1;"/>
<stop offset="0.095" style="stop-color:rgb(40%,18.039216%,55.294118%);stop-opacity:1;"/>
<stop offset="0.788" style="stop-color:rgb(62.352941%,12.54902%,39.215686%);stop-opacity:1;"/>
<stop offset="0.949" style="stop-color:rgb(80.392157%,12.54902%,19.607843%);stop-opacity:1;"/>
</linearGradient>
<linearGradient id="linear5" gradientUnits="userSpaceOnUse" x1="79.861" y1="248.893997" x2="125.369003" y2="33.476002" gradientTransform="matrix(0.585938,0,0,0.585938,0,0)">
<stop offset="0.323" style="stop-color:rgb(61.960784%,12.54902%,39.215686%);stop-opacity:1;"/>
<stop offset="0.63" style="stop-color:rgb(78.823529%,12.54902%,21.568627%);stop-opacity:1;"/>
<stop offset="0.751" style="stop-color:rgb(80.392157%,13.72549%,20.784314%);stop-opacity:1;"/>
<stop offset="1" style="stop-color:rgb(91.372549%,47.058824%,14.901961%);stop-opacity:1;"/>
</linearGradient>
<linearGradient id="linear6" gradientUnits="userSpaceOnUse" x1="66.755997" y1="302.141998" x2="109.583" y2="52.84" gradientTransform="matrix(0.585938,0,0,0.585938,0,0)">
<stop offset="0.323" style="stop-color:rgb(61.960784%,12.54902%,39.215686%);stop-opacity:1;"/>
<stop offset="0.63" style="stop-color:rgb(78.823529%,12.54902%,21.568627%);stop-opacity:1;"/>
<stop offset="0.751" style="stop-color:rgb(80.392157%,13.72549%,20.784314%);stop-opacity:1;"/>
<stop offset="1" style="stop-color:rgb(91.372549%,47.058824%,14.901961%);stop-opacity:1;"/>
</linearGradient>
<linearGradient id="linear7" gradientUnits="userSpaceOnUse" x1="180.304001" y1="45.929001" x2="225.334" y2="33.925999" gradientTransform="matrix(0.585938,0,0,0.585938,0,0)">
<stop offset="0" style="stop-color:rgb(96.470588%,60%,13.72549%);stop-opacity:1;"/>
<stop offset="0.312" style="stop-color:rgb(96.862745%,60.392157%,13.72549%);stop-opacity:1;"/>
<stop offset="0.838" style="stop-color:rgb(91.372549%,47.058824%,14.901961%);stop-opacity:1;"/>
</linearGradient>
<linearGradient id="linear8" gradientUnits="userSpaceOnUse" x1="113.919998" y1="239.479996" x2="205.542999" y2="71.613998" gradientTransform="matrix(0.585938,0,0,0.585938,0,0)">
<stop offset="0.323" style="stop-color:rgb(61.960784%,12.54902%,39.215686%);stop-opacity:1;"/>
<stop offset="0.63" style="stop-color:rgb(78.823529%,12.54902%,21.568627%);stop-opacity:1;"/>
<stop offset="0.751" style="stop-color:rgb(80.392157%,13.72549%,20.784314%);stop-opacity:1;"/>
<stop offset="1" style="stop-color:rgb(91.372549%,47.058824%,14.901961%);stop-opacity:1;"/>
</linearGradient>
<linearGradient id="linear9" gradientUnits="userSpaceOnUse" x1="88.540001" y1="203.462997" x2="129.914993" y2="133.972" gradientTransform="matrix(0.585938,0,0,0.585938,0,0)">
<stop offset="0" style="stop-color:rgb(15.686275%,14.901961%,38.431373%);stop-opacity:1;"/>
<stop offset="0.095" style="stop-color:rgb(40%,18.039216%,55.294118%);stop-opacity:1;"/>
<stop offset="0.788" style="stop-color:rgb(62.352941%,12.54902%,39.215686%);stop-opacity:1;"/>
<stop offset="0.949" style="stop-color:rgb(80.392157%,12.54902%,19.607843%);stop-opacity:1;"/>
</linearGradient>
<linearGradient id="linear10" gradientUnits="userSpaceOnUse" x1="104.575996" y1="227.591995" x2="197.490005" y2="70.310997" gradientTransform="matrix(0.585938,0,0,0.585938,0,0)">
<stop offset="0.323" style="stop-color:rgb(61.960784%,12.54902%,39.215686%);stop-opacity:1;"/>
<stop offset="0.63" style="stop-color:rgb(78.823529%,12.54902%,21.568627%);stop-opacity:1;"/>
<stop offset="0.751" style="stop-color:rgb(80.392157%,13.72549%,20.784314%);stop-opacity:1;"/>
<stop offset="1" style="stop-color:rgb(91.372549%,47.058824%,14.901961%);stop-opacity:1;"/>
</linearGradient>
<linearGradient id="linear11" gradientUnits="userSpaceOnUse" x1="82.398003" y1="213.608002" x2="133.362" y2="137.785995" gradientTransform="matrix(0.585938,0,0,0.585938,0,0)">
<stop offset="0" style="stop-color:rgb(15.686275%,14.901961%,38.431373%);stop-opacity:1;"/>
<stop offset="0.095" style="stop-color:rgb(40%,18.039216%,55.294118%);stop-opacity:1;"/>
<stop offset="0.788" style="stop-color:rgb(62.352941%,12.54902%,39.215686%);stop-opacity:1;"/>
<stop offset="0.949" style="stop-color:rgb(80.392157%,12.54902%,19.607843%);stop-opacity:1;"/>
</linearGradient>
<linearGradient id="linear12" gradientUnits="userSpaceOnUse" x1="80.940002" y1="227.735992" x2="188.052002" y2="56.105" gradientTransform="matrix(0.585938,0,0,0.585938,0,0)">
<stop offset="0.323" style="stop-color:rgb(61.960784%,12.54902%,39.215686%);stop-opacity:1;"/>
<stop offset="0.63" style="stop-color:rgb(78.823529%,12.54902%,21.568627%);stop-opacity:1;"/>
<stop offset="0.751" style="stop-color:rgb(80.392157%,13.72549%,20.784314%);stop-opacity:1;"/>
<stop offset="1" style="stop-color:rgb(91.372549%,47.058824%,14.901961%);stop-opacity:1;"/>
</linearGradient>
<linearGradient id="linear13" gradientUnits="userSpaceOnUse" x1="81.294998" y1="159.727005" x2="149.893005" y2="46.672001" gradientTransform="matrix(0.585938,0,0,0.585938,0,0)">
<stop offset="0.323" style="stop-color:rgb(61.960784%,12.54902%,39.215686%);stop-opacity:1;"/>
<stop offset="0.63" style="stop-color:rgb(78.823529%,12.54902%,21.568627%);stop-opacity:1;"/>
<stop offset="0.751" style="stop-color:rgb(80.392157%,13.72549%,20.784314%);stop-opacity:1;"/>
<stop offset="1" style="stop-color:rgb(91.372549%,47.058824%,14.901961%);stop-opacity:1;"/>
</linearGradient>
</defs>
<g id="surface1">
<path style=" stroke:none;fill-rule:nonzero;fill:rgb(14.117648%,16.078432%,21.960784%);fill-opacity:1;" d="M 35.15625 0 L 114.84375 0 C 134.261719 0 150 15.738281 150 35.15625 L 150 114.84375 C 150 134.261719 134.261719 150 114.84375 150 L 35.15625 150 C 15.738281 150 0 134.261719 0 114.84375 L 0 35.15625 C 0 15.738281 15.738281 0 35.15625 0 Z M 35.15625 0 "/>
<path style=" stroke:none;fill-rule:nonzero;fill:url(#linear0);" d="M 31.246094 15.820312 C 31.042969 16.300781 30.851562 16.917969 30.671875 17.667969 L 30.542969 18.25 C 30.5 18.453125 30.457031 18.664062 30.414062 18.882812 L 30.292969 19.558594 L 30.179688 20.28125 L 30.070312 21.042969 L 29.96875 21.851562 L 29.871094 22.695312 L 29.785156 23.582031 C 29.769531 23.730469 29.757812 23.882812 29.742188 24.039062 L 29.664062 24.980469 L 29.59375 25.957031 L 29.53125 26.96875 L 29.503906 27.488281 L 35.773438 30.523438 C 35.679688 26.863281 35.796875 23.398438 36.128906 20.21875 L 36.191406 19.652344 L 36.148438 20.171875 L 36.089844 21.03125 L 36.070312 21.441406 L 36.035156 22.375 L 36.023438 22.898438 L 36.011719 24.070312 L 36.011719 25.050781 L 36.027344 26.125 L 36.042969 26.890625 L 36.085938 28.121094 L 36.121094 28.988281 L 36.167969 29.902344 L 36.195312 30.375 C 37.363281 29.421875 38.761719 28.171875 40.214844 26.804688 L 41.191406 25.878906 C 41.355469 25.722656 41.519531 25.5625 41.683594 25.40625 L 42.664062 24.449219 L 43.628906 23.488281 L 44.574219 22.535156 L 45.480469 21.601562 C 44.476562 19.550781 43.394531 18.046875 42.390625 16.945312 L 42.058594 16.59375 C 41.847656 16.378906 41.636719 16.175781 41.414062 15.976562 L 41.105469 15.707031 L 40.808594 15.464844 C 40.714844 15.390625 40.617188 15.316406 40.523438 15.246094 L 40.25 15.050781 L 39.992188 14.875 L 39.636719 14.65625 L 39.320312 14.476562 L 38.964844 14.304688 L 38.699219 14.1875 L 38.214844 14.015625 L 37.863281 13.902344 L 37.519531 13.804688 L 37.257812 13.738281 L 36.972656 13.675781 L 36.824219 13.644531 L 36.511719 13.589844 L 36.183594 13.542969 C 34.449219 13.324219 32.207031 13.550781 31.246094 15.820312 "/>
<path style=" stroke:none;fill-rule:nonzero;fill:url(#linear1);" d="M 37.414062 49.039062 C 37.128906 46.988281 36.863281 44.933594 36.621094 42.878906 C 36.429688 41.226562 36.269531 39.574219 36.136719 37.917969 L 36.027344 36.449219 C 36.023438 36.414062 36.023438 36.378906 36.023438 36.339844 C 35.886719 34.402344 35.792969 32.460938 35.742188 30.519531 L 29.484375 27.5 L 29.46875 27.882812 L 29.425781 28.679688 C 29.363281 30.179688 29.316406 31.773438 29.304688 33.449219 C 29.289062 35.335938 29.304688 37.304688 29.339844 39.367188 C 29.382812 41.265625 29.460938 43.242188 29.5625 45.257812 C 29.640625 46.546875 29.722656 47.851562 29.820312 49.167969 L 29.933594 50.695312 L 38.308594 54.9375 L 38.011719 52.960938 Z M 37.414062 49.039062 "/>
<path style=" stroke:none;fill-rule:nonzero;fill:url(#linear2);" d="M 49.523438 97.664062 L 49.65625 98.109375 L 50.488281 100.9375 C 50.605469 101.335938 50.726562 101.742188 50.851562 102.144531 L 51.246094 103.429688 L 51.382812 103.890625 C 51.40625 103.96875 51.433594 104.042969 51.460938 104.117188 L 52.8125 108.441406 C 54.003906 108.195312 55.460938 108.640625 57 109.3125 L 57.617188 109.589844 C 56.484375 108.226562 54.917969 107.316406 53.046875 107.105469 C 58.175781 103.683594 61.546875 99.28125 61.074219 94.023438 C 61.023438 93.542969 60.957031 93.066406 60.867188 92.589844 C 60.789062 94.527344 60.015625 95.949219 57.773438 97.46875 L 57.5 97.652344 C 59.816406 93.570312 60.457031 90.804688 60.183594 87.226562 C 60.109375 86.316406 60 85.40625 59.851562 84.507812 C 59.109375 89.835938 56.25 93.285156 52.0625 95.324219 Z M 49.523438 97.664062 "/>
<path style=" stroke:none;fill-rule:nonzero;fill:url(#linear3);" d="M 46.523438 91.410156 L 45.992188 89.414062 L 44.921875 85.371094 C 44.410156 83.402344 43.914062 81.433594 43.433594 79.457031 C 42.949219 77.460938 42.480469 75.453125 42.011719 73.445312 C 41.535156 71.394531 41.082031 69.339844 40.65625 67.277344 L 40.230469 65.238281 L 39.414062 61.15625 C 39.269531 60.421875 39.132812 59.683594 39.003906 58.945312 C 38.769531 57.691406 38.554688 56.421875 38.335938 55.15625 L 38.292969 54.949219 L 29.96875 50.699219 L 29.992188 50.964844 C 29.996094 51.007812 30 51.054688 29.996094 51.101562 C 30.164062 52.984375 30.328125 54.902344 30.550781 56.824219 C 30.769531 58.78125 31.019531 60.738281 31.308594 62.71875 C 31.558594 64.386719 31.820312 66.054688 32.097656 67.71875 L 32.277344 68.722656 C 33.007812 72.734375 33.945312 76.703125 35.085938 80.617188 C 35.429688 81.785156 35.792969 82.945312 36.167969 84.105469 L 36.488281 85.039062 L 37.15625 86.894531 C 37.945312 89.035156 38.824219 91.144531 39.785156 93.210938 L 48.199219 97.476562 C 47.753906 95.929688 47.335938 94.355469 46.882812 92.761719 L 46.648438 91.867188 Z M 46.523438 91.410156 "/>
<path style=" stroke:none;fill-rule:nonzero;fill:url(#linear4);" d="M 39.90625 93.492188 C 40.921875 95.660156 42.027344 97.765625 43.25 99.78125 L 43.925781 100.875 C 43.128906 100.554688 42.121094 100.394531 41.140625 100.324219 L 40.652344 100.296875 L 40.414062 100.285156 L 39.945312 100.277344 L 39.289062 100.277344 L 38.703125 100.296875 L 38.207031 100.320312 L 37.515625 100.378906 L 37.507812 100.378906 C 41.761719 101.855469 45.496094 103.664062 47.847656 106.402344 C 46.914062 107.433594 45.164062 108.214844 42.960938 108.855469 C 44.601562 109.03125 45.847656 108.960938 46.75 108.8125 L 47.113281 108.746094 C 47.171875 108.734375 47.226562 108.722656 47.28125 108.710938 L 47.582031 108.632812 L 47.84375 108.558594 L 48.160156 108.449219 L 48.324219 108.382812 C 46.972656 109.507812 46.125 111.429688 45.421875 113.582031 L 45.179688 114.351562 C 45.140625 114.480469 45.101562 114.609375 45.0625 114.738281 C 46.851562 111.8125 48.628906 109.875 50.355469 109.136719 C 52.289062 115.539062 54.523438 122.355469 56.972656 129.46875 L 58.121094 132.773438 C 58.507812 133.882812 58.898438 134.996094 59.296875 136.117188 C 59.867188 135.382812 59.929688 134.566406 59.691406 133.738281 L 58.90625 131.523438 L 58.015625 128.9375 L 56.632812 124.832031 L 55.496094 121.390625 L 54.246094 117.507812 L 53.050781 113.71875 L 51.949219 110.167969 L 51.144531 107.507812 L 50.484375 105.3125 C 50.398438 105.023438 50.316406 104.730469 50.230469 104.433594 L 49.984375 103.621094 L 49.273438 101.167969 L 48.550781 98.644531 L 48.226562 97.480469 L 48.214844 97.464844 L 39.796875 93.199219 C 39.816406 93.273438 39.839844 93.335938 39.863281 93.398438 Z M 39.90625 93.492188 "/>
<path style=" stroke:none;fill-rule:nonzero;fill:url(#linear5);" d="M 39.285156 55.117188 L 39.433594 55.933594 C 39.542969 56.488281 39.644531 57.046875 39.75 57.613281 L 40.660156 62.28125 L 40.992188 63.910156 L 41.480469 66.207031 L 41.734375 67.382812 C 41.984375 68.546875 42.25 69.726562 42.527344 70.933594 L 43.097656 73.382812 L 43.667969 75.773438 C 43.765625 76.175781 43.863281 76.582031 43.960938 76.992188 L 44.574219 79.464844 L 45.183594 81.867188 C 45.5 83.105469 45.824219 84.339844 46.152344 85.574219 C 46.398438 86.503906 46.652344 87.445312 46.914062 88.402344 L 47.789062 91.589844 L 48.453125 93.929688 L 49.132812 96.324219 L 49.484375 97.535156 C 49.492188 97.582031 49.5 97.628906 49.523438 97.664062 L 52.0625 95.324219 L 52.003906 95.347656 L 51.867188 95.414062 C 54.878906 92.570312 57.460938 86.867188 58.050781 81.730469 C 58.324219 79.363281 58.296875 76.84375 57.972656 74.097656 C 57.738281 72.046875 57.324219 69.894531 56.75 67.566406 C 56.210938 65.410156 55.589844 63.273438 54.882812 61.167969 C 54.414062 62.117188 53.753906 63.050781 52.941406 63.964844 L 52.503906 64.445312 L 52.351562 64.601562 L 52.035156 64.921875 C 54.257812 61.46875 54.519531 57.757812 53.859375 53.90625 C 53.457031 55.050781 52.664062 56.742188 51.347656 58.261719 C 51.179688 58.464844 50.980469 58.664062 50.785156 58.863281 C 50.75 58.886719 50.71875 58.921875 50.683594 58.953125 L 50.625 59.003906 C 51.363281 57.777344 51.90625 56.609375 52.253906 55.429688 C 52.308594 55.265625 52.355469 55.097656 52.390625 54.933594 L 52.445312 54.679688 C 52.535156 54.300781 52.59375 53.910156 52.65625 53.523438 L 52.738281 52.773438 C 52.773438 52.335938 52.78125 51.882812 52.761719 51.421875 L 52.703125 50.574219 C 52.695312 50.511719 52.6875 50.449219 52.679688 50.386719 L 52.589844 49.847656 C 52.574219 49.761719 52.558594 49.675781 52.542969 49.589844 C 52.390625 48.683594 52.203125 47.78125 51.984375 46.890625 L 51.804688 46.175781 L 51.636719 45.574219 L 51.421875 44.859375 L 51.144531 44.023438 C 51.113281 43.941406 51.085938 43.859375 51.054688 43.78125 L 50.886719 43.359375 C 50.832031 43.230469 50.78125 43.113281 50.730469 43.003906 L 50.59375 42.71875 C 50.566406 42.835938 50.53125 42.945312 50.484375 43.054688 L 50.410156 43.226562 C 49.882812 44.457031 48.664062 46.144531 47.554688 47.328125 C 47.535156 47.34375 47.519531 47.355469 47.515625 47.386719 L 47.285156 47.613281 C 47.246094 47.65625 47.207031 47.699219 47.167969 47.742188 L 47.214844 47.660156 L 39.214844 54.984375 C 39.28125 55.039062 39.289062 55.085938 39.285156 55.117188 "/>
<path style=" stroke:none;fill-rule:nonzero;fill:url(#linear6);" d="M 36.195312 30.375 C 36.226562 30.960938 36.265625 31.570312 36.3125 32.203125 L 36.40625 33.5 C 36.425781 33.722656 36.441406 33.945312 36.460938 34.171875 L 36.582031 35.566406 C 36.601562 35.800781 36.621094 36.042969 36.644531 36.285156 L 36.664062 36.515625 C 36.667969 36.550781 36.675781 36.589844 36.683594 36.625 C 36.75 37.339844 36.828125 38.074219 36.910156 38.828125 L 37.089844 40.375 C 37.152344 40.898438 37.21875 41.4375 37.289062 41.984375 L 37.621094 44.5 C 37.777344 45.640625 37.945312 46.820312 38.132812 48.054688 L 38.277344 48.988281 C 38.421875 49.941406 38.582031 50.914062 38.75 51.914062 L 39.277344 54.996094 L 47.277344 47.671875 C 48.945312 44.648438 49.308594 42.769531 49.285156 40.433594 C 49.277344 39.945312 49.253906 39.460938 49.226562 38.972656 L 49.191406 38.46875 C 49.0625 36.421875 48.816406 34.25 48.46875 32.152344 C 48.140625 30.121094 47.738281 28.167969 47.277344 26.496094 C 47.019531 25.527344 46.714844 24.570312 46.359375 23.628906 C 46.089844 22.953125 45.792969 22.289062 45.476562 21.632812 L 44.570312 22.558594 L 44.105469 23.03125 L 43.148438 23.984375 L 42.175781 24.9375 L 41.195312 25.882812 L 40.703125 26.351562 L 39.734375 27.257812 C 38.453125 28.445312 37.234375 29.527344 36.195312 30.375 "/>
<path style=" stroke:none;fill-rule:nonzero;fill:url(#linear7);" d="M 113.199219 17.386719 C 112.945312 17.492188 112.664062 17.625 112.363281 17.785156 L 111.898438 18.042969 C 111.574219 18.226562 111.234375 18.4375 110.871094 18.671875 L 110.3125 19.042969 L 109.726562 19.453125 L 109.113281 19.894531 L 108.472656 20.375 C 108.363281 20.457031 108.253906 20.542969 108.144531 20.628906 L 107.46875 21.15625 L 106.765625 21.722656 L 106.042969 22.320312 L 105.296875 22.949219 L 104.527344 23.609375 L 103.742188 24.300781 L 102.933594 25.023438 L 102.527344 25.394531 L 105.164062 32.824219 C 108.015625 29.777344 110.882812 27.066406 113.695312 24.757812 L 114.683594 23.957031 L 114.753906 23.902344 L 114.074219 24.453125 L 113.40625 25.03125 L 112.683594 25.6875 L 111.996094 26.328125 L 111.421875 26.882812 L 111.007812 27.289062 L 110.109375 28.1875 L 109.378906 28.941406 L 108.320312 30.054688 L 107.757812 30.660156 L 107.175781 31.296875 L 106.257812 32.3125 L 105.617188 33.035156 C 106.273438 33.097656 106.992188 33.152344 107.757812 33.199219 L 108.941406 33.261719 L 110.179688 33.3125 L 111.464844 33.351562 L 112.78125 33.378906 L 114.121094 33.398438 C 114.34375 33.398438 114.570312 33.402344 114.792969 33.402344 L 116.140625 33.40625 C 116.363281 33.40625 116.585938 33.402344 116.808594 33.402344 L 118.136719 33.390625 C 118.355469 33.386719 118.570312 33.382812 118.789062 33.378906 L 120.066406 33.351562 C 121.117188 30.226562 121.355469 27.710938 121.273438 25.832031 L 121.246094 25.355469 L 121.207031 24.910156 L 121.179688 24.699219 L 121.125 24.296875 L 121.058594 23.921875 L 121.027344 23.746094 L 120.953125 23.417969 L 120.878906 23.117188 L 120.800781 22.84375 L 120.726562 22.605469 L 120.585938 22.214844 L 120.472656 21.941406 L 120.199219 21.378906 L 120.039062 21.078125 L 119.90625 20.84375 L 119.753906 20.585938 L 119.578125 20.308594 L 119.382812 20.015625 L 119.167969 19.714844 C 117.964844 18.09375 115.910156 16.269531 113.199219 17.390625 "/>
<path style=" stroke:none;fill-rule:nonzero;fill:url(#linear8);" d="M 91.777344 49.03125 C 93.175781 47.15625 94.59375 45.292969 96.03125 43.445312 C 97.472656 41.601562 98.957031 39.789062 100.484375 38.007812 C 100.570312 37.898438 100.660156 37.792969 100.746094 37.707031 C 102.175781 36.035156 103.640625 34.398438 105.144531 32.796875 L 102.503906 25.394531 L 102.183594 25.691406 L 101.519531 26.296875 C 100.203125 27.523438 98.90625 28.769531 97.632812 30.039062 C 96.859375 30.808594 96.09375 31.585938 95.332031 32.367188 L 93.757812 33.996094 C 93.492188 34.273438 93.226562 34.550781 92.957031 34.832031 C 91.4375 36.453125 89.9375 38.09375 88.460938 39.753906 C 87.484375 40.863281 86.515625 41.980469 85.558594 43.105469 L 84.4375 44.425781 L 87.808594 54.492188 L 89.140625 52.667969 Z M 91.777344 49.03125 "/>
<path style=" stroke:none;fill-rule:nonzero;fill:url(#linear9);" d="M 62.886719 97.800781 L 62.386719 98.726562 L 61.0625 101.199219 C 60.839844 101.617188 60.617188 102.039062 60.390625 102.460938 L 59.691406 103.8125 C 59.558594 104.058594 59.425781 104.285156 59.316406 104.535156 L 58.582031 105.957031 L 56.96875 109.085938 C 58.28125 109.9375 59.15625 111.769531 59.925781 113.832031 C 60.097656 111.835938 59.558594 109.855469 58.21875 108.199219 C 65.066406 109.519531 71.28125 108.652344 75.078125 104.046875 C 75.417969 103.621094 75.742188 103.179688 76.050781 102.726562 C 74.445312 104.230469 72.6875 104.757812 69.65625 104.195312 L 69.316406 104.125 C 74.425781 102.683594 77.136719 100.960938 79.757812 97.863281 C 80.421875 97.074219 81.054688 96.253906 81.652344 95.414062 C 76.824219 99.113281 71.78125 99.617188 66.789062 97.933594 Z M 62.886719 97.800781 "/>
<path style=" stroke:none;fill-rule:nonzero;fill:url(#linear10);" d="M 65.175781 90.847656 L 66.597656 88.351562 L 68.945312 84.246094 C 70.089844 82.269531 71.253906 80.296875 72.449219 78.304688 C 73.644531 76.3125 74.859375 74.320312 76.078125 72.332031 C 77.324219 70.304688 78.59375 68.289062 79.886719 66.289062 C 81.152344 64.308594 82.464844 62.332031 83.75 60.378906 C 84.21875 59.667969 84.695312 58.96875 85.179688 58.273438 C 85.996094 57.070312 86.820312 55.878906 87.65625 54.691406 L 87.78125 54.488281 L 84.457031 44.453125 L 84.269531 44.6875 C 84.234375 44.726562 84.199219 44.761719 84.160156 44.796875 C 82.800781 46.449219 81.410156 48.121094 80.058594 49.847656 C 78.671875 51.605469 77.3125 53.390625 75.984375 55.195312 C 74.859375 56.734375 73.746094 58.285156 72.648438 59.84375 L 71.996094 60.796875 C 70.660156 62.769531 69.402344 64.703125 68.277344 66.558594 C 67.070312 68.542969 65.910156 70.558594 64.808594 72.601562 C 64.15625 73.816406 63.523438 75.039062 62.90625 76.269531 C 62.417969 77.269531 61.953125 78.296875 61.488281 79.300781 C 60.421875 81.652344 59.453125 84.046875 58.582031 86.476562 L 61.96875 96.59375 L 62.628906 95.394531 L 63.976562 92.976562 C 64.203125 92.570312 64.429688 92.164062 64.652344 91.75 Z M 65.175781 90.847656 "/>
<path style=" stroke:none;fill-rule:nonzero;fill:url(#linear11);" d="M 58.464844 86.796875 C 57.558594 89.351562 56.777344 91.921875 56.160156 94.515625 L 55.832031 95.9375 C 55.527344 95.234375 55.039062 94.507812 54.484375 93.820312 L 54.148438 93.414062 C 54.089844 93.347656 54.03125 93.28125 53.976562 93.21875 L 53.625 92.832031 L 53.277344 92.464844 L 52.933594 92.117188 L 52.441406 91.640625 L 51.992188 91.230469 L 51.503906 90.800781 L 51.0625 90.4375 C 53.316406 95.007812 54.882812 99.425781 54.601562 103.503906 C 53.03125 103.589844 50.996094 102.828125 48.71875 101.59375 C 49.699219 102.796875 50.601562 103.644531 51.359375 104.238281 L 51.699219 104.496094 L 51.863281 104.613281 L 52.171875 104.820312 L 52.457031 104.996094 L 52.714844 105.144531 L 52.949219 105.265625 L 53.15625 105.363281 L 53.332031 105.441406 C 53.359375 105.453125 53.386719 105.460938 53.410156 105.472656 C 51.5 105.3125 49.386719 106.113281 47.199219 107.222656 L 46.46875 107.601562 L 45.734375 108 C 49.5 107.066406 52.46875 106.917969 54.449219 107.695312 C 53.457031 109.574219 52.480469 111.457031 51.511719 113.347656 L 50.03125 116.265625 C 47.726562 120.84375 45.46875 125.441406 43.261719 130.066406 L 41.738281 133.269531 C 41.226562 134.351562 40.71875 135.433594 40.207031 136.515625 C 41.25 136.378906 41.949219 135.773438 42.417969 134.917969 L 44.140625 131.257812 L 45.730469 127.96875 L 47.757812 123.835938 L 49.550781 120.246094 L 51.328125 116.738281 L 53.015625 113.445312 L 55.355469 108.945312 L 57.019531 105.792969 L 57.589844 104.71875 L 58.082031 103.8125 L 58.53125 102.957031 L 59.214844 101.699219 L 60.613281 99.125 L 61.332031 97.816406 L 61.992188 96.621094 L 61.996094 96.597656 L 58.609375 86.476562 C 58.566406 86.554688 58.535156 86.617188 58.507812 86.6875 Z M 58.464844 86.796875 "/>
<path style=" stroke:none;fill-rule:nonzero;fill:url(#linear12);" d="M 88.453125 55.417969 L 87.925781 56.191406 C 87.570312 56.722656 87.207031 57.253906 86.84375 57.792969 L 85.105469 60.414062 L 83.867188 62.277344 L 83.550781 62.761719 C 83.074219 63.492188 82.597656 64.226562 82.128906 64.964844 L 80.679688 67.234375 C 79.691406 68.792969 78.714844 70.355469 77.753906 71.929688 L 77.007812 73.152344 C 75.78125 75.164062 74.566406 77.1875 73.367188 79.21875 L 71.945312 81.640625 C 71.21875 82.886719 70.496094 84.136719 69.78125 85.390625 C 69.34375 86.15625 68.90625 86.921875 68.476562 87.691406 L 66.320312 91.535156 L 65.660156 92.730469 L 64.320312 95.171875 C 63.863281 96.003906 63.410156 96.835938 62.960938 97.667969 C 62.929688 97.707031 62.90625 97.753906 62.890625 97.804688 L 66.792969 97.9375 C 66.726562 97.902344 66.65625 97.890625 66.5625 97.855469 C 71.25 97.957031 77.859375 95.421875 82.414062 91.753906 C 84.515625 90.0625 86.496094 88.015625 88.417969 85.542969 C 89.855469 83.710938 91.230469 81.644531 92.617188 79.316406 C 93.898438 77.152344 95.09375 74.9375 96.199219 72.679688 C 95.070312 73.074219 93.792969 73.300781 92.417969 73.390625 L 91.679688 73.429688 C 91.515625 73.4375 91.355469 73.4375 91.183594 73.4375 L 90.925781 73.441406 C 95.457031 72.425781 98.617188 69.648438 101.148438 66.023438 C 99.914062 66.621094 97.929688 67.355469 95.664062 67.535156 C 95.367188 67.5625 95.050781 67.566406 94.734375 67.566406 C 94.683594 67.5625 94.636719 67.566406 94.582031 67.5625 L 94.492188 67.558594 C 96.058594 67.152344 97.425781 66.648438 98.644531 65.972656 C 98.816406 65.886719 98.988281 65.789062 99.148438 65.683594 L 99.394531 65.523438 C 99.769531 65.285156 100.125 65.023438 100.480469 64.757812 L 101.144531 64.222656 C 101.660156 63.773438 102.140625 63.28125 102.578125 62.75 L 102.863281 62.421875 C 102.90625 62.367188 102.949219 62.308594 102.992188 62.25 L 103.351562 61.746094 C 103.40625 61.664062 103.464844 61.582031 103.515625 61.5 C 104.121094 60.632812 104.699219 59.742188 105.242188 58.835938 L 105.441406 58.492188 C 105.703125 58.046875 105.933594 57.640625 106.136719 57.257812 L 106.371094 56.804688 L 106.730469 56.074219 C 106.800781 55.933594 106.871094 55.789062 106.933594 55.644531 L 107.039062 55.398438 L 107.214844 54.957031 C 107.269531 54.820312 107.3125 54.695312 107.351562 54.582031 L 107.40625 54.421875 C 107.292969 54.492188 107.175781 54.554688 107.050781 54.605469 L 106.855469 54.683594 C 105.453125 55.257812 103.132812 55.644531 101.296875 55.71875 C 101.269531 55.714844 101.246094 55.710938 101.21875 55.730469 L 100.851562 55.734375 C 100.789062 55.734375 100.722656 55.738281 100.65625 55.746094 L 100.757812 55.710938 L 88.5 55.253906 C 88.511719 55.351562 88.480469 55.394531 88.453125 55.417969 "/>
<path style=" stroke:none;fill-rule:nonzero;fill:url(#linear13);" d="M 105.621094 33.035156 C 105.179688 33.53125 104.730469 34.050781 104.261719 34.597656 L 103.308594 35.71875 L 102.316406 36.902344 L 101.121094 38.347656 C 101.09375 38.382812 101.070312 38.417969 101.046875 38.453125 C 100.335938 39.328125 99.636719 40.207031 98.941406 41.09375 L 97.839844 42.511719 C 97.652344 42.753906 97.464844 43 97.277344 43.25 L 95.691406 45.339844 L 94.65625 46.726562 C 94.121094 47.453125 93.585938 48.183594 93.054688 48.914062 L 92.507812 49.671875 C 91.949219 50.445312 91.394531 51.222656 90.847656 52.003906 L 89.710938 53.625 L 88.539062 55.304688 L 100.796875 55.761719 C 104.542969 54.65625 106.328125 53.429688 108.167969 51.53125 C 108.546875 51.132812 108.917969 50.722656 109.277344 50.308594 L 109.652344 49.875 C 111.226562 48.066406 112.707031 46.175781 114.089844 44.214844 C 115.4375 42.320312 116.664062 40.429688 117.625 38.71875 C 118.246094 37.617188 118.761719 36.597656 119.164062 35.679688 C 119.480469 34.921875 119.773438 34.152344 120.039062 33.371094 L 118.769531 33.394531 L 117.460938 33.410156 L 116.128906 33.414062 L 114.785156 33.410156 C 114.5625 33.40625 114.339844 33.40625 114.117188 33.402344 L 112.78125 33.382812 L 111.464844 33.351562 C 111.246094 33.347656 111.03125 33.339844 110.816406 33.332031 L 109.554688 33.289062 C 109.347656 33.28125 109.144531 33.269531 108.941406 33.261719 L 107.761719 33.199219 C 107.046875 33.15625 106.332031 33.101562 105.621094 33.035156 "/>
</g>
</svg>
