<?xml version="1.0" encoding="UTF-8"?>
<svg xmlns="http://www.w3.org/2000/svg" xmlns:xlink="http://www.w3.org/1999/xlink" width="150px" height="150px" viewBox="0 0 150 150" version="1.1">
<g id="surface1">
<path style=" stroke:none;fill-rule:nonzero;fill:rgb(0.784314%,20.392157%,18.82353%);fill-opacity:1;" d="M 35.15625 0 L 114.84375 0 C 134.261719 0 150 15.738281 150 35.15625 L 150 114.84375 C 150 134.261719 134.261719 150 114.84375 150 L 35.15625 150 C 15.738281 150 0 134.261719 0 114.84375 L 0 35.15625 C 0 15.738281 15.738281 0 35.15625 0 Z M 35.15625 0 "/>
<path style=" stroke:none;fill-rule:nonzero;fill:rgb(6.27451%,66.666669%,31.37255%);fill-opacity:1;" d="M 100.296875 63.042969 C 94.121094 35.808594 81.253906 28.554688 77.972656 23.429688 C 76.617188 21.171875 75.417969 18.828125 74.382812 16.40625 C 74.210938 18.828125 73.890625 20.351562 71.835938 22.183594 C 67.707031 25.867188 50.167969 40.15625 48.691406 71.101562 C 47.316406 99.957031 69.902344 117.746094 72.886719 119.585938 C 75.183594 120.714844 77.976562 119.609375 79.339844 118.574219 C 90.226562 111.101562 105.101562 91.179688 100.308594 63.042969 "/>
<path style=" stroke:none;fill-rule:nonzero;fill:rgb(72.156864%,76.862746%,76.078433%);fill-opacity:1;" d="M 75.320312 104.222656 C 74.75 111.363281 74.34375 115.511719 72.898438 119.59375 C 72.898438 119.59375 73.847656 126.390625 74.511719 133.59375 L 76.867188 133.59375 C 77.429688 128.523438 78.289062 123.488281 79.4375 118.515625 C 76.386719 117.015625 75.4375 110.488281 75.320312 104.222656 "/>
<path style=" stroke:none;fill-rule:nonzero;fill:rgb(7.058824%,57.254905%,30.980393%);fill-opacity:1;" d="M 79.433594 118.519531 C 76.351562 117.097656 75.460938 110.429688 75.324219 104.222656 C 76.085938 93.976562 76.308594 83.699219 75.988281 73.433594 C 75.828125 68.046875 76.066406 23.535156 74.660156 17.019531 C 75.621094 19.226562 76.726562 21.367188 77.972656 23.425781 C 81.253906 28.554688 94.125 35.804688 100.296875 63.042969 C 105.101562 91.132812 90.308594 111 79.433594 118.519531 "/>
</g>
</svg>
