<?xml version="1.0" encoding="UTF-8"?>
<svg xmlns="http://www.w3.org/2000/svg" xmlns:xlink="http://www.w3.org/1999/xlink" width="150px" height="150px" viewBox="0 0 150 150" version="1.1">
<g id="surface1">
<path style=" stroke:none;fill-rule:nonzero;fill:rgb(0%,45.882353%,56.078434%);fill-opacity:1;" d="M 44.621094 98.980469 L 49.179688 120.679688 C 50.203125 125.609375 50.632812 129.046875 50.460938 131.007812 C 52.953125 121.210938 54.695312 110.535156 55.6875 98.980469 L 61.167969 98.980469 C 58.8125 117.792969 55.703125 131.460938 51.84375 139.988281 C 48.839844 146.558594 45.542969 149.84375 41.957031 149.84375 C 41 149.84375 39.824219 149.421875 38.421875 148.578125 L 38.421875 144.046875 C 39.105469 144.191406 39.910156 144.269531 40.832031 144.269531 C 42.503906 144.269531 43.851562 143.589844 44.878906 142.234375 C 46.109375 140.578125 46.722656 138.71875 46.722656 136.660156 C 46.722656 135.25 46.242188 132.363281 45.289062 127.996094 L 38.9375 98.980469 Z M 9.734375 85.644531 L 18.082031 123.019531 L 18.132812 123.019531 L 26.535156 85.644531 L 33.398438 85.644531 C 34.902344 104.179688 35.789062 121.136719 36.0625 136.507812 L 30.273438 136.507812 C 30.070312 122.140625 29.507812 108.628906 28.585938 95.972656 L 28.535156 95.972656 L 19.722656 136.507812 L 15.316406 136.507812 L 6.558594 95.972656 L 6.507812 95.972656 C 5.855469 108.125 5.445312 121.640625 5.277344 136.507812 L 0 136.507812 C 0.339844 118.421875 1.195312 101.46875 2.558594 85.644531 Z M 9.734375 85.644531 "/>
<path style=" stroke:none;fill-rule:nonzero;fill:rgb(94.901961%,56.862748%,6.666667%);fill-opacity:1;" d="M 103.269531 84.890625 C 112.253906 84.890625 116.742188 93.308594 116.742188 110.136719 C 116.742188 119.28125 115.394531 126.1875 112.695312 130.855469 C 112.207031 131.707031 111.671875 132.441406 111.105469 133.125 L 117.460938 137.734375 L 117.453125 137.734375 L 115.199219 143.453125 L 106.921875 136.367188 C 105.546875 136.964844 104.039062 137.261719 102.394531 137.261719 C 97.984375 137.261719 94.6875 135.375 92.511719 131.609375 C 90.121094 127.441406 88.925781 120.882812 88.925781 111.945312 C 88.925781 102.851562 90.273438 95.96875 92.972656 91.296875 C 95.433594 87.023438 98.863281 84.890625 103.269531 84.890625 M 75.765625 84.964844 C 78.976562 84.964844 81.894531 86.222656 84.523438 88.734375 L 83.191406 93.101562 C 80.941406 91.699219 78.722656 90.992188 76.535156 90.992188 C 74.757812 90.992188 73.390625 91.621094 72.4375 92.878906 C 71.480469 94.128906 70.886719 95.738281 70.886719 97.699219 C 70.886719 100.710938 72.351562 103.324219 75.050781 105.53125 C 75.9375 106.242188 76.820312 106.960938 77.699219 107.6875 L 77.898438 107.851562 L 78 107.9375 L 78.203125 108.101562 L 78.304688 108.1875 L 78.503906 108.351562 C 80.550781 110.042969 82.472656 111.65625 82.472656 111.65625 C 85.175781 114.472656 86.519531 117.46875 86.519531 122.410156 C 86.519531 126.722656 85.445312 130.265625 83.296875 133.035156 C 81.144531 135.792969 78.257812 137.175781 74.640625 137.175781 C 71.257812 137.175781 67.980469 135.585938 64.804688 132.429688 L 66.292969 128.058594 C 69.023438 130.066406 71.496094 131.070312 73.71875 131.070312 C 75.800781 131.070312 77.429688 130.390625 78.609375 129.042969 C 79.785156 127.6875 80.492188 125.792969 80.492188 123.394531 C 80.492188 120.375 79.058594 117.792969 76.433594 115.625 C 75.609375 114.960938 74.789062 114.285156 73.972656 113.605469 L 73.769531 113.441406 C 73.402344 113.132812 73.027344 112.824219 72.664062 112.519531 L 72.464844 112.355469 C 70.691406 110.875 69.160156 109.582031 69.160156 109.582031 C 66.53125 106.761719 65.214844 103.738281 65.214844 98.757812 C 65.214844 94.636719 66.199219 91.304688 68.160156 88.773438 C 70.125 86.234375 72.660156 84.964844 75.765625 84.964844 M 127.296875 85.644531 L 127.296875 130.253906 L 138.207031 130.253906 L 138.207031 136.507812 L 121.765625 136.507812 L 121.765625 85.644531 Z M 144.269531 130.269531 L 144.269531 131.328125 L 143.070312 131.328125 L 143.070312 136.503906 L 142.152344 136.503906 L 142.152344 131.328125 L 140.90625 131.328125 L 140.90625 130.269531 Z M 146.484375 130.269531 L 147.636719 134.519531 L 148.695312 130.269531 L 149.996094 130.269531 L 149.996094 136.503906 L 149.128906 136.503906 L 149.128906 131.761719 L 147.925781 136.503906 L 147.304688 136.503906 L 146.097656 131.761719 L 146.050781 131.761719 L 146.050781 136.503906 L 145.234375 136.503906 L 145.234375 130.269531 Z M 102.707031 91.144531 C 97.414062 91.144531 94.765625 97.554688 94.765625 110.359375 C 94.765625 117.699219 95.46875 123.019531 96.867188 126.332031 C 98.164062 129.402344 100.195312 130.933594 102.964844 130.933594 C 108.257812 130.933594 110.902344 124.476562 110.902344 111.566406 C 110.902344 104.332031 110.203125 99.058594 108.804688 95.738281 C 107.503906 92.675781 105.472656 91.144531 102.707031 91.144531 "/>
<path style=" stroke:none;fill-rule:nonzero;fill:rgb(0%,45.882353%,56.078434%);fill-opacity:1;" d="M 88.832031 3.152344 C 90.589844 -3.175781 96.726562 1.617188 99.109375 3.828125 C 99.695312 4.378906 100.363281 5.546875 101.035156 5.980469 C 102.078125 6.039062 103.121094 6.160156 104.167969 6.222656 C 106.128906 6.902344 107.96875 7.453125 109.515625 8.746094 C 116.699219 14.953125 121.378906 21.28125 125.683594 31.730469 C 126.601562 33.945312 127.0625 36.339844 127.816406 38.734375 C 128.859375 42.304688 130.03125 46.054688 131.238281 49.429688 C 131.78125 51.03125 132.203125 52.808594 132.953125 54.160156 C 133.246094 54.777344 134.082031 54.960938 134.582031 55.332031 C 135.960938 56.378906 137.632812 57.171875 138.929688 58.402344 C 141.351562 60.617188 143.695312 63.257812 145.824219 65.960938 C 146.617188 67.007812 147.15625 68.484375 147.914062 69.585938 L 147.914062 70.144531 C 147.242188 70.445312 146.574219 70.753906 145.90625 71.003906 C 144.441406 71.554688 143.148438 71.429688 141.726562 71.980469 C 140.851562 72.355469 139.761719 72.847656 138.84375 72.972656 L 138.929688 73.097656 C 139.46875 75.363281 142.394531 77.207031 143.734375 78.5625 C 145.359375 80.285156 146.867188 82.371094 148.078125 84.769531 C 148.496094 85.382812 148.914062 85.9375 149.332031 86.546875 C 149.625 87.164062 149.707031 87.964844 150 88.515625 L 150 88.703125 C 149.671875 88.535156 149.4375 88.210938 149.214844 87.875 L 149.082031 87.671875 C 148.953125 87.46875 148.816406 87.269531 148.664062 87.105469 C 147.742188 86.183594 146.828125 85.078125 145.902344 84.21875 C 144.320312 82.742188 142.480469 81.886719 140.851562 80.402344 C 139.929688 79.542969 139.054688 78.5625 138.175781 77.582031 C 137.382812 76.71875 136.503906 75.0625 136.003906 73.832031 C 135.710938 73.152344 135.671875 72.355469 135.332031 71.863281 C 135.394531 71.042969 135.90625 70.800781 136.421875 70.597656 L 136.542969 70.554688 C 136.722656 70.484375 136.894531 70.417969 137.046875 70.328125 C 139.21875 68.972656 141.808594 68.484375 145.152344 68.605469 C 145.027344 67.375 142.9375 65.839844 142.269531 65.101562 C 140.933594 63.6875 139.515625 62.210938 138.09375 60.921875 C 137.339844 60.246094 136.042969 59.753906 135.210938 59.203125 C 134.082031 58.523438 131.574219 57.847656 130.949219 56.5625 C 129.886719 54.53125 129.125 52.105469 128.382812 49.660156 L 128.183594 48.992188 L 127.980469 48.324219 C 127.105469 45.375 126.019531 42.304688 125.140625 39.285156 C 124.679688 37.816406 124.46875 36.523438 123.96875 35.109375 C 120.917969 26.445312 116.40625 19.191406 110.9375 14.09375 C 109.136719 12.433594 107.132812 10.894531 104.917969 9.851562 C 103.664062 9.296875 102.160156 9.601562 100.824219 9.175781 L 99.945312 9.175781 C 99.195312 8.867188 98.566406 7.699219 97.980469 7.082031 C 96.6875 5.796875 95.394531 4.929688 93.847656 4.011719 C 93.304688 3.640625 91.757812 2.785156 91.214844 3.460938 C 90.882812 3.582031 90.710938 3.769531 90.628906 4.261719 C 90.296875 4.996094 90.589844 6.101562 90.796875 6.78125 C 91.421875 8.746094 92.300781 9.910156 93.097656 11.570312 C 93.804688 13.042969 94.683594 14.703125 95.183594 16.304688 C 96.269531 19.746094 96.773438 23.558594 97.773438 26.996094 C 98.148438 28.289062 98.734375 29.761719 99.277344 30.929688 C 99.738281 31.855469 100.570312 32.527344 100.824219 33.699219 C 101.328125 34.925781 100.070312 38.984375 99.78125 40.269531 C 98.691406 45.3125 98.902344 52.316406 100.15625 56.6875 L 100.222656 56.917969 L 100.289062 57.152344 C 100.746094 58.75 101.238281 60.472656 102.453125 60.921875 C 102.535156 60.800781 102.453125 60.863281 102.621094 60.800781 C 102.914062 57.417969 102.996094 54.160156 103.792969 51.515625 C 104.25 49.859375 105.167969 48.691406 105.796875 47.339844 C 106.214844 47.707031 106.214844 48.816406 106.464844 49.550781 C 107.007812 51.457031 107.589844 53.542969 108.261719 55.453125 C 109.636719 59.386719 111.1875 63.199219 112.941406 66.640625 C 113.527344 67.867188 114.359375 69.21875 115.113281 70.328125 C 115.445312 70.753906 115.824219 71.003906 116.074219 71.554688 L 116.15625 71.554688 L 116.15625 71.738281 C 114.902344 71.0625 114.109375 69.160156 113.109375 68.050781 C 111.226562 65.960938 108.972656 62.828125 107.675781 59.820312 C 107.132812 58.089844 106.546875 56.4375 105.960938 54.71875 L 105.960938 54.59375 C 105.710938 55.085938 105.796875 55.570312 105.671875 56.316406 C 105.128906 59.386719 105.546875 62.890625 103.664062 63.992188 C 101.535156 65.289062 99.945312 61.90625 99.277344 60.371094 C 97.144531 55.269531 96.5625 46.664062 98.066406 39.722656 C 98.398438 38.183594 98.445312 36.339844 99.027344 35.113281 C 98.902344 34.003906 98.320312 33.699219 97.980469 33.019531 C 97.398438 31.855469 96.894531 30.503906 96.4375 29.210938 C 95.558594 26.691406 94.933594 23.679688 94.265625 20.976562 C 93.972656 19.871094 93.886719 18.761719 93.59375 17.714844 C 93.097656 16.121094 92.175781 14.519531 91.464844 13.109375 C 90.503906 11.082031 87.703125 7.148438 88.832031 3.152344 M 102.535156 15.191406 C 102.648438 15.355469 102.78125 15.5 102.921875 15.640625 L 103.089844 15.8125 C 103.3125 16.039062 103.53125 16.277344 103.664062 16.605469 C 103.875 17.039062 103.914062 17.464844 104.167969 17.898438 C 104.167969 19.375 103.875 20.355469 103.285156 20.96875 C 103.285156 20.96875 103.246094 21.035156 103.203125 21.09375 C 102.871094 20.109375 102.578125 19.128906 102.242188 18.144531 C 101.828125 17.285156 101.242188 16.605469 100.90625 15.625 L 100.824219 15.625 L 100.824219 15.5 C 101.328125 15.320312 101.828125 15.191406 102.535156 15.191406 "/>
</g>
</svg>
