<?xml version="1.0" encoding="UTF-8"?>
<svg xmlns="http://www.w3.org/2000/svg" xmlns:xlink="http://www.w3.org/1999/xlink" width="150px" height="150px" viewBox="0 0 150 150" version="1.1">
<g id="surface1">
<path style=" stroke:none;fill-rule:evenodd;fill:rgb(91.764706%,29.411766%,44.313726%);fill-opacity:1;" d="M 71.039062 70.820312 C 67.226562 70.820312 63.898438 68.242188 62.945312 64.550781 L 53.367188 64.550781 C 51.324219 64.554688 49.582031 66.03125 49.246094 68.042969 L 48.902344 70.105469 C 48.589844 72.003906 47.628906 73.730469 46.183594 75 C 47.628906 76.269531 48.585938 77.996094 48.898438 79.894531 L 49.242188 81.953125 C 49.578125 83.96875 51.320312 85.445312 53.363281 85.449219 L 54.585938 85.449219 C 55.640625 81.371094 59.558594 78.714844 63.734375 79.246094 C 67.90625 79.777344 71.039062 83.328125 71.039062 87.535156 C 71.039062 91.746094 67.90625 95.296875 63.734375 95.828125 C 59.558594 96.359375 55.640625 93.703125 54.585938 89.625 L 53.363281 89.625 C 49.277344 89.628906 45.792969 86.671875 45.121094 82.640625 L 44.777344 80.582031 C 44.441406 78.566406 42.699219 77.089844 40.65625 77.089844 L 37.34375 77.089844 C 36.390625 80.777344 33.0625 83.355469 29.25 83.355469 C 25.441406 83.355469 22.109375 80.777344 21.15625 77.089844 L 16.453125 77.089844 C 15.402344 81.164062 11.484375 83.820312 7.308594 83.292969 C 3.132812 82.761719 0.00390625 79.207031 0.00390625 75 C 0.00390625 70.792969 3.132812 67.238281 7.308594 66.707031 C 11.484375 66.179688 15.402344 68.835938 16.453125 72.910156 L 21.15625 72.910156 C 22.113281 69.222656 25.441406 66.644531 29.253906 66.644531 C 33.0625 66.644531 36.394531 69.222656 37.347656 72.910156 L 40.65625 72.910156 C 42.699219 72.910156 44.445312 71.433594 44.78125 69.417969 L 45.125 67.359375 C 45.792969 63.328125 49.28125 60.371094 53.367188 60.375 L 62.945312 60.375 C 64.03125 56.167969 68.15625 53.496094 72.4375 54.222656 C 76.722656 54.953125 79.730469 58.835938 79.367188 63.164062 C 79.003906 67.492188 75.382812 70.820312 71.039062 70.820312 M 71.039062 66.640625 C 73.347656 66.640625 75.21875 64.769531 75.21875 62.464844 C 75.21875 60.15625 73.347656 58.285156 71.039062 58.285156 C 68.730469 58.285156 66.863281 60.15625 66.863281 62.464844 C 66.863281 64.769531 68.730469 66.640625 71.039062 66.640625 M 8.359375 79.179688 C 10.667969 79.179688 12.539062 77.308594 12.539062 75 C 12.539062 72.691406 10.667969 70.820312 8.359375 70.820312 C 6.050781 70.820312 4.179688 72.691406 4.179688 75 C 4.179688 77.308594 6.050781 79.179688 8.359375 79.179688 M 33.429688 75 C 33.457031 76.507812 32.664062 77.914062 31.363281 78.675781 C 30.058594 79.4375 28.445312 79.4375 27.140625 78.675781 C 25.839844 77.914062 25.046875 76.507812 25.074219 75 C 25.113281 72.71875 26.972656 70.890625 29.25 70.890625 C 31.53125 70.890625 33.390625 72.71875 33.429688 75 M 66.859375 87.535156 C 66.863281 89.84375 64.992188 91.714844 62.683594 91.714844 C 60.375 91.714844 58.503906 89.84375 58.503906 87.535156 C 58.503906 85.230469 60.375 83.359375 62.683594 83.359375 C 64.992188 83.359375 66.859375 85.230469 66.863281 87.535156 "/>
<path style=" stroke:none;fill-rule:evenodd;fill:rgb(1.568628%,1.960784%,2.352941%);fill-opacity:1;" d="M 125.371094 72.175781 L 125.371094 71.976562 C 126.828125 71.246094 128.285156 69.984375 128.285156 67.496094 C 128.285156 63.910156 125.335938 61.753906 121.261719 61.753906 C 117.085938 61.753906 114.101562 64.042969 114.101562 67.5625 C 114.101562 69.953125 115.496094 71.246094 117.019531 71.976562 L 117.019531 72.175781 C 114.765625 72.996094 113.273438 75.152344 113.308594 77.550781 C 113.308594 81.171875 116.289062 83.691406 121.226562 83.691406 C 126.164062 83.691406 129.046875 81.171875 129.046875 77.550781 C 129.046875 74.5625 127.0625 72.804688 125.371094 72.175781 M 121.226562 64.804688 C 122.886719 64.804688 124.109375 65.867188 124.109375 67.660156 C 124.109375 69.453125 122.851562 70.515625 121.226562 70.515625 C 119.605469 70.515625 118.246094 69.453125 118.246094 67.660156 C 118.246094 65.835938 119.539062 64.804688 121.226562 64.804688 M 121.226562 80.503906 C 119.304688 80.503906 117.746094 79.277344 117.746094 77.1875 C 117.746094 75.292969 119.039062 73.867188 121.195312 73.867188 C 123.316406 73.867188 124.609375 75.261719 124.609375 77.253906 C 124.609375 79.277344 123.117188 80.503906 121.226562 80.503906 "/>
<path style=" stroke:none;fill-rule:nonzero;fill:rgb(1.568628%,1.960784%,2.352941%);fill-opacity:1;" d="M 134.160156 83.359375 L 138.402344 83.359375 L 138.402344 74.367188 C 138.402344 71.410156 140.191406 70.117188 142.210938 70.117188 C 144.199219 70.117188 145.757812 71.445312 145.757812 74.167969 L 145.757812 83.359375 L 150 83.359375 L 150 73.304688 C 150 68.957031 147.480469 66.433594 143.539062 66.433594 C 141.054688 66.433594 139.660156 67.429688 138.667969 68.722656 L 138.402344 68.722656 L 138.039062 66.765625 L 134.160156 66.765625 Z M 96.613281 83.359375 L 92.371094 83.359375 L 92.371094 66.765625 L 96.25 66.765625 L 96.613281 68.722656 L 96.878906 68.722656 C 97.871094 67.429688 99.265625 66.433594 101.75 66.433594 C 105.695312 66.433594 108.210938 68.957031 108.210938 73.304688 L 108.210938 83.359375 L 103.96875 83.359375 L 103.96875 74.167969 C 103.96875 71.445312 102.414062 70.117188 100.425781 70.117188 C 98.402344 70.117188 96.613281 71.410156 96.613281 74.367188 Z M 96.613281 83.359375 "/>
</g>
</svg>
