<?xml version="1.0" encoding="UTF-8"?>
<svg xmlns="http://www.w3.org/2000/svg" xmlns:xlink="http://www.w3.org/1999/xlink" width="150px" height="150px" viewBox="0 0 150 150" version="1.1">
<g id="surface1">
<path style=" stroke:none;fill-rule:nonzero;fill:rgb(100%,9.019608%,26.666668%);fill-opacity:1;" d="M 86.191406 12.203125 C 85.292969 12.203125 84.441406 12.417969 83.671875 12.675781 C 85.335938 13.785156 86.234375 15.234375 86.703125 16.898438 C 86.746094 17.113281 86.789062 17.28125 86.832031 17.496094 C 86.875 17.710938 86.914062 17.878906 86.914062 18.09375 C 87.042969 20.953125 86.148438 21.292969 85.550781 23 C 84.613281 25.179688 84.867188 27.527344 86.019531 29.402344 C 86.105469 29.617188 86.234375 29.871094 86.402344 30.128906 C 85.167969 21.890625 92.039062 20.65625 93.316406 18.09375 C 93.402344 15.832031 91.566406 14.339844 90.117188 13.316406 C 88.625 12.460938 87.34375 12.203125 86.191406 12.203125 Z M 96.519531 14.039062 C 96.390625 14.808594 96.476562 14.59375 96.433594 14.976562 C 96.390625 15.234375 96.390625 15.574219 96.347656 15.832031 C 96.261719 16.089844 96.21875 16.34375 96.132812 16.601562 L 95.878906 17.367188 C 95.75 17.625 95.664062 17.839844 95.535156 18.136719 L 95.28125 18.519531 C 95.195312 18.605469 95.152344 18.734375 95.066406 18.820312 C 94.898438 19.03125 94.726562 19.289062 94.597656 19.460938 C 94.382812 19.671875 94.257812 19.886719 94 20.058594 L 94 20.097656 C 93.785156 20.269531 93.617188 20.441406 93.402344 20.613281 C 92.71875 21.125 91.953125 21.507812 91.226562 22.019531 C 91.011719 22.191406 90.757812 22.320312 90.585938 22.488281 C 90.371094 22.660156 90.160156 22.832031 89.988281 23 L 89.390625 23.597656 C 89.222656 23.8125 89.050781 24.027344 88.921875 24.238281 C 88.75 24.453125 88.582031 24.710938 88.453125 24.921875 C 88.324219 25.179688 88.238281 25.390625 88.109375 25.691406 C 88.027344 25.945312 87.898438 26.160156 87.855469 26.457031 C 87.769531 26.757812 87.683594 27.011719 87.640625 27.269531 C 87.597656 27.398438 87.597656 27.566406 87.554688 27.695312 C 87.515625 27.824219 87.515625 27.953125 87.472656 28.078125 C 87.472656 28.335938 87.429688 28.636719 87.429688 28.890625 C 87.429688 29.105469 87.429688 29.273438 87.472656 29.488281 C 87.472656 29.746094 87.515625 30 87.554688 30.300781 C 87.597656 30.554688 87.640625 30.8125 87.726562 31.066406 L 87.984375 31.835938 C 88.070312 32.007812 88.152344 32.175781 88.195312 32.304688 L 80.726562 29.402344 C 79.449219 29.0625 78.210938 28.71875 76.972656 28.421875 C 76.289062 28.25 75.605469 28.078125 74.925781 27.953125 C 72.960938 27.566406 70.980469 27.269531 68.992188 27.054688 C 68.90625 27.054688 68.90625 27.011719 68.820312 27.011719 C 66.859375 26.800781 64.9375 26.714844 63.015625 26.714844 C 61.566406 26.714844 60.160156 26.800781 58.75 26.886719 C 56.785156 27.011719 54.78125 27.269531 52.816406 27.609375 C 52.347656 27.695312 51.835938 27.78125 51.367188 27.867188 C 50.34375 28.078125 49.402344 28.292969 48.421875 28.507812 C 47.953125 28.636719 47.441406 28.761719 46.972656 28.890625 C 46.503906 29.105469 46.03125 29.316406 45.5625 29.488281 C 45.214844 29.664062 44.859375 29.820312 44.496094 29.957031 C 44.410156 30 44.367188 30 44.324219 30.042969 C 44.023438 30.191406 43.722656 30.347656 43.429688 30.511719 C 43.34375 30.554688 43.257812 30.597656 43.214844 30.597656 C 42.875 30.769531 42.492188 30.941406 42.191406 31.109375 C 41.976562 31.195312 41.722656 31.324219 41.550781 31.453125 C 41.464844 31.535156 41.339844 31.578125 41.253906 31.621094 C 40.953125 31.792969 40.65625 31.964844 40.398438 32.089844 C 40.101562 32.261719 39.84375 32.433594 39.632812 32.5625 C 39.417969 32.730469 39.160156 32.859375 38.992188 33.03125 C 38.949219 33.074219 38.90625 33.074219 38.90625 33.117188 C 38.6875 33.25 38.488281 33.40625 38.308594 33.585938 L 38.222656 33.671875 C 38.050781 33.796875 37.882812 33.925781 37.753906 34.054688 C 37.667969 34.097656 37.625 34.140625 37.539062 34.183594 C 37.371094 34.3125 37.199219 34.480469 37.070312 34.609375 C 37.027344 34.695312 36.984375 34.695312 36.941406 34.738281 C 36.730469 34.949219 36.558594 35.078125 36.34375 35.292969 C 36.300781 35.292969 36.300781 35.335938 36.261719 35.378906 C 36.046875 35.546875 35.875 35.71875 35.664062 35.933594 C 35.621094 35.976562 35.621094 36.015625 35.578125 36.015625 C 35.40625 36.1875 35.234375 36.359375 35.109375 36.53125 C 35.023438 36.613281 34.9375 36.65625 34.894531 36.742188 C 34.722656 36.957031 34.554688 37.128906 34.339844 37.339844 C 34.296875 37.425781 34.253906 37.425781 34.210938 37.511719 C 33.957031 37.765625 33.742188 38.023438 33.445312 38.28125 L 33.359375 38.363281 C 32.847656 38.921875 32.289062 39.476562 31.695312 39.945312 C 31.097656 40.457031 30.5 40.96875 29.859375 41.394531 C 29.21875 41.863281 28.578125 42.25 27.894531 42.632812 C 27.253906 42.972656 26.574219 43.316406 25.847656 43.613281 C 25.152344 43.914062 24.441406 44.171875 23.714844 44.382812 C 22.347656 44.679688 20.9375 45.234375 19.746094 45.320312 C 19.488281 45.320312 19.191406 45.40625 18.933594 45.40625 C 18.632812 45.492188 18.378906 45.535156 18.121094 45.621094 C 17.867188 45.707031 17.609375 45.832031 17.355469 45.917969 C 17.097656 46.003906 16.84375 46.132812 16.585938 46.261719 C 16.371094 46.429688 16.117188 46.558594 15.859375 46.730469 C 15.648438 46.898438 15.390625 47.070312 15.222656 47.285156 C 15.007812 47.453125 14.75 47.667969 14.582031 47.882812 C 14.367188 48.09375 14.195312 48.308594 14.027344 48.523438 C 13.855469 48.777344 13.683594 48.992188 13.554688 49.289062 C 13.386719 49.503906 13.214844 49.761719 13.085938 50.058594 C 12.957031 50.355469 12.832031 50.613281 12.746094 50.910156 C 12.660156 51.167969 12.53125 51.46875 12.445312 51.765625 C 12.363281 52.023438 12.320312 52.277344 12.277344 52.535156 C 12.277344 52.574219 12.234375 52.617188 12.234375 52.617188 C 12.148438 52.917969 12.148438 53.300781 12.148438 53.515625 C 12.105469 53.726562 12.0625 53.941406 12.0625 54.15625 C 12.0625 54.28125 12.0625 54.453125 12.105469 54.582031 C 12.148438 54.796875 12.191406 55.007812 12.234375 55.179688 C 12.320312 55.394531 12.363281 55.5625 12.445312 55.777344 L 12.445312 55.820312 C 12.53125 56.03125 12.660156 56.203125 12.789062 56.417969 C 12.914062 56.628906 13.042969 56.800781 13.214844 57.015625 C 13.386719 57.183594 13.554688 57.355469 13.769531 57.527344 C 13.984375 57.738281 14.152344 57.867188 14.367188 58.039062 C 15.136719 58.722656 15.347656 58.933594 16.328125 59.488281 L 16.84375 59.746094 C 16.886719 59.746094 16.925781 59.789062 16.925781 59.789062 C 16.925781 59.875 16.925781 59.875 16.96875 59.960938 C 17.011719 60.214844 17.054688 60.472656 17.140625 60.726562 C 17.226562 61.027344 17.3125 61.28125 17.398438 61.496094 C 17.523438 61.816406 17.566406 61.878906 17.652344 62.09375 C 17.695312 62.179688 17.738281 62.222656 17.738281 62.261719 C 17.867188 62.519531 17.996094 62.734375 18.121094 62.988281 C 18.292969 63.203125 18.464844 63.460938 18.59375 63.671875 C 18.761719 63.886719 18.933594 64.097656 19.148438 64.269531 C 19.359375 64.484375 19.53125 64.609375 19.746094 64.824219 C 19.746094 64.824219 19.785156 64.867188 19.828125 64.867188 C 20.042969 65.039062 20.214844 65.207031 20.425781 65.335938 C 20.640625 65.507812 20.898438 65.636719 21.152344 65.761719 C 21.367188 65.890625 21.621094 66.019531 21.921875 66.105469 C 22.132812 66.191406 22.347656 66.273438 22.5625 66.316406 C 22.601562 66.359375 22.644531 66.359375 22.6875 66.402344 C 22.816406 66.445312 22.988281 66.488281 23.117188 66.488281 C 23.03125 68.238281 22.988281 69.902344 23.242188 70.5 C 23.542969 71.140625 24.949219 69.175781 26.402344 66.871094 C 26.1875 69.132812 26.058594 71.738281 26.402344 72.546875 C 26.742188 73.359375 28.707031 70.839844 30.414062 68.023438 C 53.457031 62.691406 74.496094 78.609375 76.714844 101.140625 C 76.289062 97.640625 71.980469 95.679688 69.972656 96.148438 C 68.992188 98.539062 67.328125 101.652344 64.683594 103.574219 C 64.894531 101.441406 64.808594 99.222656 64.339844 97.085938 C 63.617188 100.074219 62.207031 102.890625 60.328125 105.28125 C 57.257812 105.496094 54.140625 104 52.519531 101.78125 C 52.390625 101.695312 52.347656 101.484375 52.261719 101.355469 C 52.179688 101.140625 52.050781 100.886719 52.007812 100.671875 C 51.921875 100.457031 51.835938 100.203125 51.792969 99.988281 C 51.75 99.777344 51.75 99.519531 51.75 99.265625 L 51.75 98.792969 C 51.792969 98.582031 51.835938 98.324219 51.921875 98.113281 C 52.007812 97.898438 52.050781 97.640625 52.136719 97.429688 C 52.261719 97.214844 52.347656 96.960938 52.519531 96.746094 C 53.074219 95.167969 53.074219 93.929688 52.050781 93.160156 C 51.835938 93.03125 51.664062 92.949219 51.453125 92.820312 C 51.324219 92.777344 51.152344 92.734375 51.027344 92.691406 C 50.941406 92.648438 50.855469 92.605469 50.769531 92.605469 C 50.554688 92.519531 50.300781 92.476562 50.085938 92.433594 C 49.875 92.351562 49.617188 92.351562 49.402344 92.351562 C 49.191406 92.308594 48.933594 92.265625 48.679688 92.265625 C 48.507812 92.265625 48.335938 92.308594 48.210938 92.308594 C 47.953125 92.308594 47.738281 92.351562 47.484375 92.390625 C 47.269531 92.433594 47.015625 92.476562 46.800781 92.519531 C 46.585938 92.605469 46.332031 92.648438 46.117188 92.734375 C 45.90625 92.820312 45.691406 92.949219 45.476562 93.03125 C 45.265625 93.117188 45.09375 93.246094 44.878906 93.375 C 37.285156 98.324219 41.808594 109.890625 47.015625 113.21875 C 45.050781 113.558594 43.089844 113.988281 42.535156 114.414062 L 42.449219 114.5 C 43.847656 115.351562 45.316406 116.078125 46.84375 116.675781 C 48.933594 117.359375 51.152344 117.957031 52.09375 118.253906 L 52.09375 118.296875 C 54.78125 118.851562 57.511719 119.066406 60.285156 118.894531 C 74.667969 117.871094 86.488281 106.945312 88.625 92.476562 C 88.707031 92.777344 88.75 93.03125 88.835938 93.332031 C 88.921875 93.929688 89.050781 94.527344 89.136719 95.167969 L 89.136719 95.210938 C 89.21875 95.507812 89.21875 95.808594 89.261719 96.0625 L 89.261719 96.191406 C 89.304688 96.488281 89.347656 96.789062 89.347656 97.042969 C 89.390625 97.386719 89.433594 97.769531 89.433594 98.113281 L 89.433594 98.625 C 89.433594 98.792969 89.476562 98.964844 89.476562 99.136719 C 89.476562 99.347656 89.433594 99.519531 89.433594 99.734375 L 89.433594 100.203125 C 89.433594 100.414062 89.390625 100.628906 89.390625 100.84375 C 89.390625 100.972656 89.390625 101.097656 89.347656 101.269531 C 89.347656 101.484375 89.304688 101.738281 89.304688 101.996094 C 89.261719 102.078125 89.261719 102.207031 89.261719 102.292969 C 89.222656 102.550781 89.179688 102.761719 89.179688 103.0625 C 89.179688 103.148438 89.179688 103.277344 89.136719 103.359375 C 89.09375 103.703125 89.050781 103.957031 89.007812 104.300781 L 89.007812 104.382812 C 88.921875 104.683594 88.878906 104.984375 88.792969 105.28125 L 88.792969 105.367188 C 88.710938 105.664062 88.664062 105.964844 88.582031 106.261719 C 88.582031 106.304688 88.539062 106.347656 88.539062 106.390625 C 88.453125 106.691406 88.410156 106.988281 88.324219 107.285156 L 88.324219 107.371094 C 88.238281 107.714844 88.109375 107.96875 88.070312 108.269531 C 88.027344 108.3125 88.027344 108.351562 88.027344 108.351562 C 87.941406 108.695312 87.8125 108.992188 87.726562 109.335938 C 87.597656 109.675781 87.515625 109.933594 87.386719 110.273438 C 87.257812 110.617188 87.171875 110.914062 87.042969 111.214844 C 86.917969 111.554688 86.789062 111.808594 86.660156 112.152344 L 86.617188 112.152344 C 86.488281 112.449219 86.363281 112.75 86.191406 113.046875 C 86.148438 113.132812 86.105469 113.21875 86.105469 113.261719 C 86.0625 113.304688 86.0625 113.347656 86.019531 113.347656 C 83.886719 117.613281 80.769531 121.328125 76.886719 124.273438 C 76.632812 124.441406 76.375 124.613281 76.121094 124.828125 C 76.035156 124.910156 75.949219 124.910156 75.90625 124.996094 C 75.679688 125.179688 75.4375 125.335938 75.179688 125.46875 L 75.265625 125.679688 L 75.308594 125.679688 C 75.777344 125.59375 76.203125 125.550781 76.675781 125.46875 L 76.714844 125.46875 C 77.570312 125.339844 78.425781 125.167969 79.234375 124.996094 C 79.449219 124.953125 79.703125 124.910156 79.960938 124.828125 C 80.132812 124.785156 80.257812 124.742188 80.429688 124.742188 C 80.644531 124.699219 80.898438 124.65625 81.113281 124.613281 C 81.324219 124.527344 81.496094 124.527344 81.710938 124.441406 C 84.953125 123.675781 88.109375 122.609375 91.140625 121.328125 C 85.976562 128.367188 79.0625 134.085938 70.957031 137.800781 C 74.710938 137.542969 78.429688 136.902344 82.050781 135.878906 C 95.152344 131.996094 106.164062 123.203125 112.777344 111.339844 C 111.453125 118.851562 108.46875 126.023438 104.03125 132.253906 C 107.1875 130.160156 110.089844 127.773438 112.691406 125.039062 C 119.988281 117.445312 124.769531 107.757812 126.390625 97.386719 C 127.5 102.507812 127.84375 107.839844 127.332031 113.046875 C 150.800781 80.316406 129.292969 46.34375 120.289062 37.425781 C 120.246094 37.339844 120.203125 37.339844 120.203125 37.253906 C 120.160156 37.296875 120.160156 37.296875 120.160156 37.339844 C 120.160156 37.296875 120.160156 37.296875 120.117188 37.253906 C 120.117188 37.640625 120.074219 38.023438 120.03125 38.40625 C 119.949219 39.175781 119.820312 39.859375 119.691406 40.585938 C 119.519531 41.308594 119.351562 42.035156 119.136719 42.71875 C 118.921875 43.402344 118.667969 44.125 118.367188 44.808594 C 118.070312 45.449219 117.769531 46.132812 117.386719 46.773438 C 117.027344 47.398438 116.644531 48.011719 116.234375 48.605469 C 115.808594 49.203125 115.339844 49.800781 114.910156 50.355469 C 114.441406 50.953125 113.886719 51.46875 113.375 51.976562 C 113.035156 52.277344 112.777344 52.535156 112.4375 52.789062 C 112.179688 53.003906 111.96875 53.214844 111.667969 53.429688 C 111.070312 53.898438 110.515625 54.324219 109.832031 54.710938 C 109.234375 55.09375 108.554688 55.476562 107.914062 55.820312 C 107.230469 56.160156 106.546875 56.417969 105.863281 56.714844 C 105.179688 56.972656 104.457031 57.183594 103.730469 57.398438 C 103.003906 57.613281 102.28125 57.738281 101.554688 57.867188 C 100.820312 57.992188 100.078125 58.078125 99.335938 58.125 C 98.824219 58.167969 98.3125 58.210938 97.757812 58.210938 C 96.988281 58.210938 96.261719 58.125 95.535156 58.082031 C 94.769531 57.996094 94.042969 57.910156 93.316406 57.738281 C 92.550781 57.613281 91.867188 57.398438 91.140625 57.183594 L 91.097656 57.183594 C 91.824219 57.101562 92.550781 57.058594 93.234375 56.929688 C 94 56.800781 94.683594 56.628906 95.410156 56.460938 C 96.132812 56.246094 96.859375 56.03125 97.542969 55.777344 C 98.269531 55.519531 98.949219 55.179688 99.589844 54.878906 C 100.273438 54.539062 100.871094 54.199219 101.554688 53.8125 C 102.152344 53.386719 102.792969 52.960938 103.390625 52.535156 C 103.988281 52.0625 104.542969 51.59375 105.054688 51.082031 C 105.609375 50.613281 106.078125 50.058594 106.589844 49.503906 C 107.058594 48.90625 107.527344 48.351562 107.957031 47.753906 C 108.039062 47.667969 108.082031 47.539062 108.167969 47.414062 C 108.507812 46.902344 108.820312 46.375 109.109375 45.832031 C 109.449219 45.195312 109.789062 44.554688 110.089844 43.871094 C 110.386719 43.1875 110.644531 42.503906 110.859375 41.777344 C 111.070312 41.097656 111.242188 40.371094 111.414062 39.644531 C 111.539062 38.878906 111.667969 38.195312 111.753906 37.46875 C 111.839844 36.699219 111.882812 35.976562 111.882812 35.25 C 111.882812 34.738281 111.839844 34.226562 111.796875 33.671875 C 111.710938 32.902344 111.625 32.21875 111.539062 31.492188 C 111.414062 30.726562 111.242188 30.042969 111.070312 29.316406 C 110.859375 28.636719 110.601562 27.910156 110.34375 27.226562 C 110.089844 26.542969 109.746094 25.859375 109.449219 25.222656 C 109.109375 24.582031 108.722656 23.941406 108.339844 23.300781 L 107.058594 21.507812 C 106.589844 20.953125 106.078125 20.398438 105.566406 19.84375 C 105.308594 19.585938 105.011719 19.289062 104.710938 19.03125 C 103.261719 17.878906 101.726562 16.8125 100.1875 15.832031 C 99.976562 15.703125 99.761719 15.617188 99.546875 15.492188 C 98.523438 14.722656 97.542969 14.382812 96.519531 14.039062 Z M 96.519531 14.039062 "/>
</g>
</svg>
