<?xml version="1.0" encoding="UTF-8"?>
<svg xmlns="http://www.w3.org/2000/svg" xmlns:xlink="http://www.w3.org/1999/xlink" width="150px" height="150px" viewBox="0 0 150 150" version="1.1">
<defs>
<linearGradient id="linear0" gradientUnits="userSpaceOnUse" x1="34.513" y1="15.535" x2="27.157" y2="30.448" gradientTransform="matrix(7.248316,0,0,7.248316,-151.455474,-86.384761)">
<stop offset="0" style="stop-color:rgb(24.705882%,52.941176%,24.705882%);stop-opacity:1;"/>
<stop offset="0.33" style="stop-color:rgb(24.705882%,54.509804%,23.921569%);stop-opacity:1;"/>
<stop offset="0.637" style="stop-color:rgb(24.313725%,58.823529%,21.960784%);stop-opacity:1;"/>
<stop offset="0.934" style="stop-color:rgb(23.921569%,66.27451%,18.039216%);stop-opacity:1;"/>
<stop offset="1" style="stop-color:rgb(23.921569%,68.235294%,16.862745%);stop-opacity:1;"/>
</linearGradient>
<linearGradient id="linear1" gradientUnits="userSpaceOnUse" x1="30.009001" y1="23.358999" x2="50.533001" y2="8.288" gradientTransform="matrix(7.248316,0,0,7.248316,-151.455474,-86.384761)">
<stop offset="0.138" style="stop-color:rgb(24.705882%,52.941176%,24.705882%);stop-opacity:1;"/>
<stop offset="0.402" style="stop-color:rgb(32.156863%,62.745098%,26.666667%);stop-opacity:1;"/>
<stop offset="0.713" style="stop-color:rgb(39.215686%,71.764706%,28.627451%);stop-opacity:1;"/>
<stop offset="0.908" style="stop-color:rgb(41.568627%,74.901961%,29.411765%);stop-opacity:1;"/>
</linearGradient>
<linearGradient id="linear2" gradientUnits="userSpaceOnUse" x1="21.917" y1="22.261" x2="40.555" y2="22.261" gradientTransform="matrix(7.248316,0,0,7.248316,-151.455474,-86.384761)">
<stop offset="0.092" style="stop-color:rgb(41.568627%,74.901961%,29.411765%);stop-opacity:1;"/>
<stop offset="0.287" style="stop-color:rgb(39.215686%,71.764706%,28.627451%);stop-opacity:1;"/>
<stop offset="0.598" style="stop-color:rgb(32.156863%,62.745098%,26.666667%);stop-opacity:1;"/>
<stop offset="0.862" style="stop-color:rgb(24.705882%,52.941176%,24.705882%);stop-opacity:1;"/>
</linearGradient>
</defs>
<g id="surface1">
<path style=" stroke:none;fill-rule:nonzero;fill:url(#linear0);" d="M 78.464844 0.96875 C 76.277344 -0.289062 73.585938 -0.289062 71.394531 0.964844 L 13.011719 34.875 C 10.789062 36.132812 9.542969 38.5 9.542969 41.015625 L 9.542969 108.96875 C 9.542969 111.480469 10.929688 113.851562 13.007812 115.109375 L 71.390625 149.019531 C 73.582031 150.273438 76.273438 150.273438 78.464844 149.019531 L 136.847656 115.109375 C 139.066406 113.851562 140.3125 111.480469 140.3125 108.96875 L 140.3125 41.015625 C 140.3125 38.503906 138.929688 36.132812 136.847656 34.875 Z M 78.464844 0.96875 "/>
<path style=" stroke:none;fill-rule:nonzero;fill:url(#linear1);" d="M 136.988281 34.875 L 78.328125 0.96875 C 77.753906 0.671875 77.148438 0.4375 76.527344 0.269531 L 10.792969 113.433594 C 11.335938 114.101562 11.996094 114.667969 12.734375 115.109375 L 71.394531 149.019531 C 73.058594 149.992188 75 150.273438 76.804688 149.714844 L 138.515625 36.132812 C 138.109375 35.601562 137.585938 35.171875 136.988281 34.875 "/>
<path style=" stroke:none;fill-rule:nonzero;fill:url(#linear2);" d="M 136.988281 115.109375 C 138.652344 114.132812 139.902344 112.457031 140.457031 110.640625 L 76.25 0.125 C 74.585938 -0.152344 72.78125 -0.0117188 71.257812 0.964844 L 13.011719 34.734375 L 75.832031 149.992188 C 76.664062 149.851562 77.636719 149.574219 78.46875 149.15625 Z M 136.988281 115.109375 "/>
</g>
</svg>
