<?xml version="1.0" encoding="UTF-8"?>
<svg xmlns="http://www.w3.org/2000/svg" xmlns:xlink="http://www.w3.org/1999/xlink" width="150px" height="150px" viewBox="0 0 150 150" version="1.1">
<g id="surface1">
<path style=" stroke:none;fill-rule:nonzero;fill:rgb(0%,0%,0%);fill-opacity:1;" d="M 109.933594 107.945312 C 110.851562 100.289062 110.578125 99.164062 116.28125 100.40625 L 117.726562 100.53125 C 122.113281 100.730469 127.847656 99.824219 131.21875 98.261719 C 138.472656 94.894531 142.773438 89.273438 135.621094 90.75 C 119.304688 94.117188 118.183594 88.589844 118.183594 88.589844 C 135.414062 63.027344 142.617188 30.574219 136.398438 22.628906 C 119.441406 0.964844 90.089844 11.207031 89.597656 11.472656 L 89.441406 11.503906 C 86.21875 10.832031 82.609375 10.433594 78.554688 10.367188 C 71.171875 10.246094 65.570312 12.304688 61.316406 15.527344 C 61.316406 15.527344 8.957031 -6.046875 11.390625 42.65625 C 11.910156 53.019531 26.242188 121.054688 43.335938 100.503906 C 49.585938 92.988281 55.621094 86.636719 55.621094 86.636719 C 58.621094 88.625 62.210938 89.644531 65.976562 89.277344 L 66.265625 89.03125 C 66.175781 89.960938 66.214844 90.875 66.382812 91.957031 C 61.980469 96.875 63.273438 97.738281 54.46875 99.550781 C 45.5625 101.386719 50.792969 104.65625 54.210938 105.507812 C 58.351562 106.546875 67.9375 108.011719 74.410156 98.949219 L 74.152344 99.984375 C 75.882812 101.367188 75.765625 109.917969 76.007812 116.027344 C 76.253906 122.136719 76.664062 127.835938 77.910156 131.199219 C 79.152344 134.5625 80.625 143.21875 92.195312 140.738281 C 101.867188 138.671875 109.257812 135.6875 109.933594 107.945312 "/>
<path style=" stroke:none;fill-rule:nonzero;fill:rgb(0%,0%,0%);fill-opacity:1;" d="M 88.425781 146.785156 C 83.308594 146.785156 79.976562 144.804688 77.953125 142.894531 C 74.898438 140.011719 73.6875 136.296875 72.960938 134.078125 L 72.648438 133.152344 C 71.191406 129.21875 70.695312 123.550781 70.402344 116.257812 C 70.359375 115.160156 70.328125 114.03125 70.292969 112.835938 C 70.269531 111.960938 70.238281 110.863281 70.195312 109.714844 C 68.351562 110.59375 66.394531 111.210938 64.378906 111.550781 C 60.773438 112.167969 56.894531 111.96875 52.847656 110.957031 C 49.996094 110.242188 47.03125 108.765625 45.339844 106.480469 C 40.414062 110.792969 35.71875 110.210938 33.15625 109.355469 C 28.644531 107.847656 24.601562 103.617188 20.804688 96.421875 C 18.097656 91.292969 15.480469 84.613281 13.023438 76.566406 C 8.746094 62.550781 6.03125 47.789062 5.789062 42.941406 C 5.03125 27.769531 9.113281 16.921875 17.925781 10.699219 C 31.824219 0.878906 52.882812 6.652344 60.5625 9.273438 C 65.722656 6.167969 71.789062 4.652344 78.648438 4.761719 C 82.332031 4.820312 85.839844 5.144531 89.097656 5.726562 C 92.496094 4.660156 99.207031 3.125 106.890625 3.21875 C 121.046875 3.390625 132.78125 8.90625 140.816406 19.175781 C 146.550781 26.5 143.714844 41.886719 141.515625 50.40625 C 138.417969 62.390625 132.996094 75.136719 126.332031 86.230469 C 128.140625 86.242188 130.761719 86.027344 134.488281 85.257812 C 141.839844 83.738281 143.992188 87.683594 144.574219 89.445312 C 146.914062 96.527344 136.75 101.878906 133.582031 103.351562 C 129.519531 105.234375 122.898438 106.382812 117.472656 106.136719 L 117.238281 106.121094 L 115.8125 105.996094 L 115.671875 107.183594 L 115.535156 108.34375 C 115.171875 122.40625 113.160156 131.3125 109.027344 137.195312 C 104.695312 143.363281 98.675781 145.09375 93.371094 146.230469 C 91.5625 146.617188 89.917969 146.785156 88.425781 146.785156 M 77.65625 95.609375 C 80.960938 98.25 81.25 103.226562 81.507812 112.523438 C 81.542969 113.683594 81.574219 114.78125 81.613281 115.804688 C 81.738281 118.910156 82.03125 126.183594 83.167969 129.253906 C 83.328125 129.691406 83.472656 130.132812 83.625 130.597656 C 84.894531 134.484375 85.53125 136.433594 91.019531 135.261719 C 95.625 134.273438 97.996094 133.386719 99.847656 130.746094 C 102.542969 126.910156 104.050781 119.191406 104.324219 107.808594 L 109.929688 107.945312 L 104.363281 107.277344 L 104.527344 105.886719 C 105.0625 101.304688 105.445312 97.996094 108.507812 95.804688 C 110.964844 94.050781 113.765625 94.21875 115.996094 94.621094 C 113.546875 92.769531 112.867188 90.597656 112.6875 89.707031 L 112.21875 87.40625 L 113.535156 85.457031 C 121.101562 74.230469 127.339844 60.433594 130.652344 47.601562 C 134.058594 34.414062 133.019531 27.414062 131.980469 26.089844 C 118.238281 8.527344 94.402344 15.777344 91.914062 16.601562 L 91.492188 16.828125 L 89.382812 17.21875 L 88.304688 16.996094 C 85.324219 16.378906 82.015625 16.035156 78.46875 15.976562 C 72.894531 15.882812 68.398438 17.203125 64.710938 20 L 62.152344 21.9375 L 59.183594 20.714844 C 52.84375 18.121094 34.214844 12.910156 24.382812 19.871094 C 18.929688 23.734375 16.441406 31.308594 16.996094 42.378906 C 17.179688 46.035156 19.660156 59.871094 23.757812 73.289062 C 29.417969 91.835938 34.5625 97.996094 36.710938 98.710938 C 37.085938 98.839844 38.058594 98.082031 39.027344 96.921875 C 43.0625 92.082031 47.242188 87.363281 51.558594 82.777344 L 54.804688 79.359375 L 58.730469 81.964844 C 60.3125 83.019531 62.058594 83.613281 63.847656 83.726562 L 73.210938 75.742188 L 71.851562 89.582031 C 71.824219 89.890625 71.808594 90.316406 71.929688 91.101562 L 72.335938 93.722656 L 70.566406 95.699219 L 70.363281 95.929688 L 75.507812 98.304688 Z M 77.65625 95.609375 "/>
<path style=" stroke:none;fill-rule:nonzero;fill:rgb(20%,40.392157%,56.862748%);fill-opacity:1;" d="M 135.621094 90.75 C 119.304688 94.117188 118.183594 88.589844 118.183594 88.589844 C 135.414062 63.027344 142.613281 30.570312 136.398438 22.628906 C 119.441406 0.964844 90.085938 11.210938 89.597656 11.476562 L 89.441406 11.503906 C 86.214844 10.835938 82.609375 10.4375 78.550781 10.371094 C 71.167969 10.25 65.566406 12.308594 61.316406 15.53125 C 61.316406 15.53125 8.953125 -6.042969 11.386719 42.660156 C 11.90625 53.023438 26.238281 121.058594 43.332031 100.507812 C 49.582031 92.992188 55.617188 86.640625 55.617188 86.640625 C 58.617188 88.628906 62.207031 89.648438 65.96875 89.28125 L 66.261719 89.03125 C 66.171875 89.964844 66.214844 90.878906 66.378906 91.960938 C 61.976562 96.878906 63.269531 97.742188 54.464844 99.554688 C 45.554688 101.390625 50.789062 104.660156 54.207031 105.511719 C 58.347656 106.550781 67.933594 108.015625 74.40625 98.953125 L 74.148438 99.988281 C 75.875 101.371094 77.085938 108.976562 76.882812 115.875 C 76.679688 122.769531 76.542969 127.507812 77.902344 131.203125 C 79.261719 134.902344 80.617188 143.222656 92.191406 140.742188 C 101.863281 138.671875 106.871094 133.300781 107.570312 124.34375 C 108.066406 117.972656 109.183594 118.917969 109.257812 113.222656 L 110.15625 110.527344 C 111.191406 101.894531 110.320312 99.109375 116.277344 100.402344 L 117.726562 100.53125 C 122.109375 100.730469 127.847656 99.824219 131.21875 98.257812 C 138.472656 94.894531 142.773438 89.273438 135.621094 90.75 "/>
<path style=" stroke:none;fill-rule:nonzero;fill:rgb(100%,100%,100%);fill-opacity:1;" d="M 89.011719 143.328125 C 79.367188 143.328125 76.308594 135.6875 75.058594 132.566406 C 73.226562 127.984375 72.832031 110.21875 73.242188 95.648438 C 73.253906 95.152344 73.464844 94.679688 73.824219 94.339844 C 74.183594 93.996094 74.667969 93.816406 75.164062 93.832031 C 75.660156 93.84375 76.128906 94.054688 76.46875 94.414062 C 76.808594 94.773438 76.992188 95.257812 76.980469 95.75 C 76.507812 112.558594 77.175781 127.789062 78.53125 131.175781 C 80.644531 136.460938 83.851562 141.082031 92.914062 139.140625 C 101.519531 137.292969 104.742188 134.03125 106.179688 125.710938 C 107.28125 119.324219 109.460938 101.160156 109.726562 97.574219 C 109.761719 97.078125 109.996094 96.617188 110.371094 96.296875 C 110.746094 95.972656 111.238281 95.8125 111.730469 95.847656 C 112.761719 95.925781 113.53125 96.824219 113.457031 97.851562 C 113.175781 101.585938 111.007812 119.714844 109.863281 126.347656 C 108.171875 136.175781 103.789062 140.632812 93.699219 142.796875 C 91.984375 143.164062 90.429688 143.328125 89.011719 143.328125 M 36.703125 106.015625 C 35.859375 106.011719 35.023438 105.875 34.226562 105.605469 C 27.957031 103.515625 21.992188 93.308594 16.484375 75.269531 C 12.292969 61.539062 9.640625 47.207031 9.40625 42.550781 C 8.714844 28.742188 12.269531 18.96875 19.976562 13.511719 C 35.21875 2.714844 60.859375 12.996094 61.945312 13.441406 C 62.902344 13.832031 63.359375 14.921875 62.96875 15.878906 C 62.578125 16.835938 61.484375 17.292969 60.53125 16.902344 C 60.28125 16.800781 35.695312 6.953125 22.128906 16.570312 C 15.542969 21.242188 12.515625 29.917969 13.140625 42.363281 C 13.335938 46.289062 15.816406 60.277344 20.058594 74.179688 C 24.976562 90.28125 30.566406 100.445312 35.40625 102.058594 C 36.167969 102.3125 38.476562 103.082031 41.78125 99.109375 C 45.632812 94.480469 49.628906 89.976562 53.765625 85.601562 C 54.484375 84.882812 55.648438 84.871094 56.378906 85.574219 C 57.113281 86.277344 57.152344 87.4375 56.464844 88.1875 C 56.410156 88.246094 50.785156 94.125 44.65625 101.5 C 41.753906 104.992188 38.972656 106.015625 36.703125 106.015625 M 118.066406 90.257812 C 117.375 90.257812 116.742188 89.875 116.417969 89.265625 C 116.09375 88.65625 116.132812 87.917969 116.515625 87.34375 C 133.933594 61.5 140.046875 30.269531 134.8125 23.578125 C 128.222656 15.15625 118.914062 10.757812 107.152344 10.503906 C 98.441406 10.316406 91.515625 12.542969 90.386719 12.929688 L 90.101562 13.046875 C 88.960938 13.402344 88.089844 12.777344 87.761719 12.050781 C 87.371094 11.1875 87.6875 10.167969 88.5 9.675781 C 88.554688 9.644531 88.726562 9.574219 89.003906 9.472656 L 88.976562 9.476562 L 89.003906 9.46875 C 90.925781 8.765625 97.953125 6.65625 106.660156 6.757812 C 119.679688 6.894531 130.429688 11.914062 137.753906 21.273438 C 141.21875 25.703125 141.226562 35.90625 137.777344 49.265625 C 134.257812 62.890625 127.640625 77.53125 119.617188 89.433594 C 119.257812 89.96875 118.667969 90.257812 118.066406 90.257812 M 118.957031 102.222656 C 115.984375 102.222656 113.316406 101.804688 111.722656 100.847656 C 110.082031 99.863281 109.765625 98.527344 109.726562 97.820312 C 109.277344 89.957031 113.617188 88.585938 115.828125 87.964844 C 115.519531 87.496094 115.082031 86.949219 114.628906 86.382812 C 113.339844 84.769531 111.570312 82.5625 110.210938 79.257812 C 109.996094 78.742188 109.328125 77.546875 108.554688 76.15625 C 104.363281 68.636719 95.632812 52.984375 101.242188 44.96875 C 103.835938 41.261719 109.003906 39.800781 116.613281 40.617188 C 114.375 33.792969 103.710938 12.453125 78.40625 12.035156 C 70.796875 11.910156 64.554688 14.25 59.867188 18.984375 C 49.367188 29.589844 49.746094 48.777344 49.75 48.96875 C 49.777344 50 48.964844 50.859375 47.929688 50.886719 C 46.898438 50.914062 46.039062 50.101562 46.011719 49.066406 C 45.988281 48.214844 45.597656 28.082031 57.207031 16.355469 C 62.640625 10.867188 69.796875 8.15625 78.46875 8.296875 C 94.65625 8.5625 105.078125 16.792969 110.96875 23.652344 C 117.386719 31.125 120.535156 39.367188 120.792969 42.117188 C 120.988281 44.164062 119.519531 44.574219 119.222656 44.632812 L 118.546875 44.648438 C 111.078125 43.453125 106.285156 44.285156 104.304688 47.117188 C 100.039062 53.210938 108.292969 68.015625 111.820312 74.335938 C 112.71875 75.949219 113.367188 77.113281 113.664062 77.835938 C 114.824219 80.640625 116.335938 82.53125 117.546875 84.046875 C 118.613281 85.378906 119.539062 86.535156 119.871094 87.894531 C 120.023438 88.164062 122.203125 91.386719 135.128906 88.71875 C 138.367188 88.046875 140.3125 88.621094 140.90625 90.414062 C 142.074219 93.949219 135.519531 98.070312 131.890625 99.757812 C 128.636719 101.269531 123.449219 102.222656 118.957031 102.222656 M 113.453125 97.511719 C 113.863281 97.925781 115.917969 98.640625 120.164062 98.457031 C 123.945312 98.292969 127.929688 97.472656 130.320312 96.363281 C 133.375 94.941406 135.417969 93.355469 136.472656 92.269531 L 135.886719 92.378906 C 127.625 94.085938 121.777344 93.859375 118.511719 91.703125 C 118.292969 91.558594 118.082031 91.402344 117.878906 91.234375 C 117.523438 91.371094 117.199219 91.464844 116.964844 91.527344 C 115.113281 92.046875 113.199219 92.585938 113.453125 97.511719 M 60.0625 107.960938 C 58.007812 107.960938 55.847656 107.679688 53.640625 107.128906 C 51.355469 106.554688 47.5 104.832031 47.558594 102.007812 C 47.625 98.832031 52.238281 97.882812 53.976562 97.523438 C 60.25 96.230469 60.660156 95.714844 62.617188 93.222656 C 63.191406 92.5 63.902344 91.59375 64.871094 90.511719 C 66.3125 88.898438 67.886719 88.082031 69.550781 88.082031 C 70.710938 88.082031 71.660156 88.476562 72.289062 88.738281 C 74.289062 89.566406 75.960938 91.574219 76.648438 93.972656 C 77.265625 96.136719 76.96875 98.21875 75.816406 99.839844 C 72.019531 105.148438 66.574219 107.960938 60.0625 107.960938 M 51.597656 102.167969 C 52.160156 102.601562 53.292969 103.183594 54.546875 103.5 C 56.460938 103.976562 58.3125 104.21875 60.0625 104.21875 C 65.390625 104.21875 69.667969 102.015625 72.773438 97.664062 C 73.421875 96.757812 73.226562 95.605469 73.054688 95 C 72.691406 93.730469 71.789062 92.574219 70.859375 92.191406 C 70.355469 91.980469 69.9375 91.824219 69.550781 91.824219 C 69.34375 91.824219 68.71875 91.824219 67.660156 93.003906 C 66.929688 93.824219 66.230469 94.671875 65.558594 95.539062 C 63.117188 98.640625 61.996094 99.691406 54.730469 101.1875 C 52.957031 101.550781 52.050781 101.921875 51.597656 102.167969 M 65.976562 93.542969 C 65.054688 93.539062 64.269531 92.867188 64.128906 91.953125 C 64.082031 91.644531 64.050781 91.332031 64.035156 91.019531 C 59.273438 90.929688 54.679688 88.886719 51.191406 85.246094 C 46.777344 80.644531 44.773438 74.269531 45.683594 67.753906 C 46.671875 60.679688 46.304688 54.433594 46.105469 51.078125 C 46.050781 50.144531 46.007812 49.472656 46.011719 49.003906 C 46.015625 48.414062 46.027344 46.84375 51.273438 44.1875 C 53.136719 43.238281 56.878906 41.589844 60.964844 41.167969 C 67.734375 40.46875 72.195312 43.484375 73.53125 49.660156 C 77.140625 66.332031 73.820312 73.707031 71.394531 79.09375 C 70.941406 80.09375 70.515625 81.042969 70.175781 81.960938 L 69.875 82.769531 C 68.59375 86.203125 67.484375 89.171875 67.824219 91.386719 C 67.984375 92.40625 67.28125 93.363281 66.261719 93.519531 Z M 49.761719 49.523438 L 49.835938 50.859375 C 50.042969 54.34375 50.425781 60.828125 49.386719 68.273438 C 48.632812 73.644531 50.273438 78.890625 53.890625 82.660156 C 56.746094 85.636719 60.503906 87.28125 64.367188 87.28125 L 64.445312 87.28125 C 64.878906 85.460938 65.59375 83.535156 66.367188 81.460938 L 66.667969 80.65625 C 67.054688 79.621094 67.503906 78.617188 67.984375 77.558594 C 70.316406 72.371094 73.222656 65.917969 69.875 50.449219 C 69.214844 47.382812 67.605469 45.613281 64.964844 45.027344 C 59.542969 43.828125 51.460938 47.910156 49.761719 49.523438 M 61.046875 48.730469 C 60.953125 49.390625 62.257812 51.15625 63.960938 51.390625 C 65.65625 51.628906 67.109375 50.25 67.203125 49.589844 C 67.296875 48.925781 65.992188 48.199219 64.292969 47.960938 C 62.589844 47.726562 61.136719 48.070312 61.046875 48.730469 M 64.351562 52.042969 L 63.871094 52.007812 C 62.816406 51.863281 61.75 51.199219 61.023438 50.230469 C 60.765625 49.890625 60.347656 49.230469 60.429688 48.644531 C 60.546875 47.78125 61.601562 47.265625 63.242188 47.265625 C 63.609375 47.265625 63.992188 47.292969 64.375 47.34375 C 65.273438 47.46875 66.105469 47.726562 66.722656 48.070312 C 67.789062 48.667969 67.867188 49.332031 67.820312 49.675781 C 67.6875 50.628906 66.171875 52.042969 64.351562 52.042969 M 61.667969 48.839844 C 61.71875 49.25 62.730469 50.59375 64.046875 50.773438 L 64.351562 50.796875 C 65.566406 50.796875 66.472656 49.839844 66.578125 49.527344 C 66.464844 49.316406 65.6875 48.785156 64.207031 48.578125 C 63.886719 48.535156 63.566406 48.511719 63.242188 48.511719 C 62.292969 48.511719 61.785156 48.722656 61.667969 48.839844 M 112.765625 47.382812 C 112.859375 48.042969 111.558594 49.808594 109.855469 50.042969 C 108.15625 50.28125 106.703125 48.902344 106.609375 48.242188 C 106.519531 47.578125 107.824219 46.847656 109.523438 46.613281 C 111.222656 46.375 112.671875 46.722656 112.765625 47.382812 M 109.464844 50.382812 C 107.828125 50.382812 106.414062 49.109375 106.300781 48.28125 C 106.164062 47.292969 107.796875 46.539062 109.476562 46.304688 C 109.847656 46.253906 110.214844 46.226562 110.566406 46.226562 C 112.019531 46.226562 112.980469 46.652344 113.074219 47.339844 C 113.136719 47.785156 112.796875 48.46875 112.210938 49.085938 C 111.820312 49.496094 111.007812 50.199219 109.898438 50.351562 Z M 110.570312 46.851562 C 110.242188 46.851562 109.910156 46.875 109.566406 46.921875 C 107.878906 47.15625 106.871094 47.835938 106.917969 48.199219 C 106.976562 48.597656 108.054688 49.757812 109.464844 49.757812 L 109.8125 49.734375 C 110.734375 49.605469 111.429688 49.003906 111.757812 48.65625 C 112.277344 48.113281 112.484375 47.597656 112.460938 47.425781 C 112.425781 47.191406 111.804688 46.851562 110.570312 46.851562 M 115.214844 85.339844 C 114.523438 85.339844 113.890625 84.957031 113.566406 84.347656 C 113.242188 83.738281 113.277344 83 113.664062 82.429688 C 117.644531 76.480469 116.917969 70.417969 116.210938 64.550781 C 115.910156 62.054688 115.601562 59.46875 115.683594 56.988281 C 115.765625 54.4375 116.089844 52.332031 116.402344 50.296875 C 116.773438 47.886719 117.125 45.609375 116.980469 42.902344 C 116.921875 41.871094 117.714844 40.992188 118.746094 40.9375 C 119.777344 40.878906 120.65625 41.671875 120.710938 42.703125 C 120.878906 45.792969 120.480469 48.371094 120.097656 50.867188 C 119.800781 52.792969 119.492188 54.78125 119.421875 57.109375 C 119.347656 59.304688 119.628906 61.636719 119.925781 64.105469 C 120.675781 70.34375 121.523438 77.410156 116.773438 84.507812 C 116.421875 85.027344 115.839844 85.339844 115.214844 85.339844 "/>
</g>
</svg>
