<?xml version="1.0" encoding="UTF-8"?>
<svg xmlns="http://www.w3.org/2000/svg" xmlns:xlink="http://www.w3.org/1999/xlink" width="150px" height="150px" viewBox="0 0 150 150" version="1.1">
<g id="surface1">
<path style=" stroke:none;fill-rule:nonzero;fill:rgb(0%,0%,0%);fill-opacity:1;" d="M 126.28125 102.449219 C 110.851562 123.007812 77.898438 116.070312 56.769531 117.0625 C 56.769531 117.0625 53.023438 117.273438 49.261719 117.894531 C 49.261719 117.894531 50.6875 117.289062 52.507812 116.65625 C 67.34375 111.523438 74.355469 110.492188 83.375 105.863281 C 100.3125 97.1875 117.175781 78.28125 120.605469 58.644531 C 114.15625 77.53125 94.542969 93.789062 76.6875 100.386719 C 64.46875 104.898438 42.363281 109.289062 42.355469 109.289062 L 41.460938 108.8125 C 26.429688 101.5 25.992188 68.9375 53.300781 58.445312 C 65.273438 53.84375 76.71875 56.367188 89.664062 53.289062 C 103.460938 50.007812 119.449219 39.664062 125.945312 26.136719 C 133.226562 47.75 141.976562 81.550781 126.28125 102.449219 M 126.542969 19.449219 C 124.796875 23.636719 122.5625 27.601562 119.886719 31.261719 C 108.132812 19.148438 91.972656 12.3125 75.09375 12.320312 C 40.574219 12.320312 12.5 40.394531 12.5 74.90625 C 12.488281 92.3125 19.75 108.929688 32.53125 120.742188 L 33.90625 121.957031 L 34.84375 122.789062 C 46.097656 132.300781 60.359375 137.515625 75.09375 137.5 C 108.082031 137.5 135.175781 111.824219 137.492188 79.425781 C 139.207031 63.554688 134.519531 43.40625 126.542969 19.449219 "/>
</g>
</svg>
