<?xml version="1.0" encoding="UTF-8"?>
<svg xmlns="http://www.w3.org/2000/svg" xmlns:xlink="http://www.w3.org/1999/xlink" width="150px" height="150px" viewBox="0 0 150 150" version="1.1">
<defs>
<linearGradient id="linear0" gradientUnits="userSpaceOnUse" x1="-15.615" y1="-9.108" x2="-6.741" y2="-9.108" gradientTransform="matrix(0.000000000000000665,10.864688,-10.864688,0.000000000000000665,-30.295309,181.781253)">
<stop offset="0" style="stop-color:rgb(58.431373%,84.313725%,95.686275%);stop-opacity:1;"/>
<stop offset="0.92" style="stop-color:rgb(5.882353%,49.803922%,80%);stop-opacity:1;"/>
<stop offset="1" style="stop-color:rgb(5.882353%,49.803922%,80%);stop-opacity:1;"/>
</linearGradient>
</defs>
<g id="surface1">
<path style=" stroke:none;fill-rule:nonzero;fill:rgb(4.313726%,49.803922%,80.000001%);fill-opacity:1;" d="M 81.445312 116.222656 C 81.375 115.367188 81.335938 114.816406 81.335938 114.816406 C 81.335938 114.816406 78.75 97.367188 75.667969 92.160156 C 75.183594 91.328125 75.71875 87.945312 77.082031 82.925781 C 77.878906 84.292969 81.230469 90.179688 81.90625 92.078125 C 82.667969 94.214844 82.820312 94.828125 82.820312 94.828125 C 82.820312 94.828125 80.980469 85.355469 77.964844 79.832031 C 78.699219 77.367188 79.480469 74.917969 80.3125 72.488281 C 81.453125 74.492188 84.195312 79.355469 84.800781 81.042969 C 84.917969 81.386719 85.023438 81.679688 85.117188 81.949219 L 85.203125 81.464844 C 84.511719 78.53125 83.152344 73.425781 81.292969 69.648438 C 85.417969 48.171875 99.496094 19.464844 113.917969 6.65625 L 19.804688 6.65625 C 13.492188 6.65625 8.332031 11.820312 8.332031 18.128906 L 8.332031 121.921875 C 8.332031 128.230469 13.496094 133.394531 19.804688 133.394531 L 81.792969 133.394531 C 81.324219 127.683594 81.210938 121.949219 81.445312 116.222656 "/>
<path style=" stroke:none;fill-rule:nonzero;fill:url(#linear0);" d="M 77.082031 82.925781 C 77.878906 84.292969 81.230469 90.175781 81.90625 92.074219 C 82.667969 94.210938 82.824219 94.824219 82.824219 94.824219 C 82.824219 94.824219 80.984375 85.355469 77.964844 79.828125 C 78.699219 77.363281 79.484375 74.914062 80.316406 72.480469 C 81.355469 74.316406 83.738281 78.539062 84.59375 80.535156 L 84.691406 79.410156 C 83.929688 76.484375 82.777344 72.652344 81.292969 69.648438 C 85.09375 49.878906 97.324219 23.980469 110.503906 10.003906 L 19.804688 10.003906 C 15.316406 10.007812 11.683594 13.640625 11.679688 18.128906 L 11.679688 114.351562 C 32.21875 106.460938 56.988281 99.257812 78.304688 99.566406 C 77.515625 96.515625 76.617188 93.753906 75.667969 92.15625 C 75.183594 91.328125 75.71875 87.941406 77.082031 82.925781 "/>
<path style=" stroke:none;fill-rule:nonzero;fill:rgb(0%,22.352941%,33.725491%);fill-opacity:1;" d="M 135.878906 3.257812 C 129.433594 -2.492188 121.625 -0.179688 113.925781 6.65625 C 112.734375 7.71875 111.597656 8.835938 110.511719 10.007812 C 97.328125 23.984375 85.097656 49.878906 81.300781 69.648438 C 82.777344 72.652344 83.9375 76.484375 84.691406 79.410156 C 84.886719 80.160156 85.066406 80.863281 85.210938 81.464844 C 85.542969 82.878906 85.722656 83.804688 85.722656 83.804688 C 85.722656 83.804688 85.601562 83.355469 85.117188 81.949219 C 85.027344 81.679688 84.921875 81.382812 84.800781 81.042969 C 84.738281 80.871094 84.671875 80.703125 84.601562 80.535156 C 83.738281 78.539062 81.359375 74.316406 80.316406 72.488281 C 79.421875 75.125 78.632812 77.597656 77.96875 79.828125 C 80.988281 85.355469 82.828125 94.824219 82.828125 94.824219 C 82.828125 94.824219 82.667969 94.214844 81.914062 92.074219 C 81.234375 90.175781 77.878906 84.292969 77.089844 82.925781 C 75.722656 87.941406 75.183594 91.328125 75.671875 92.160156 C 76.621094 93.753906 77.519531 96.519531 78.3125 99.570312 C 80.097656 106.445312 81.339844 114.816406 81.339844 114.816406 C 81.339844 114.816406 81.378906 115.367188 81.453125 116.222656 C 81.214844 121.949219 81.332031 127.683594 81.800781 133.390625 C 82.390625 140.550781 83.5 146.707031 84.921875 150 L 85.890625 149.472656 C 83.804688 142.988281 82.957031 134.480469 83.328125 124.679688 C 83.890625 109.691406 87.335938 91.617188 93.707031 72.78125 C 104.476562 44.339844 119.414062 21.523438 133.082031 10.628906 C 120.621094 21.882812 103.757812 58.304688 98.710938 71.796875 C 93.0625 86.902344 89.054688 101.074219 86.636719 114.65625 C 90.796875 101.925781 104.269531 96.457031 104.269531 96.457031 C 104.269531 96.457031 110.875 88.304688 118.601562 76.667969 C 113.96875 77.726562 106.375 79.527344 103.835938 80.59375 C 100.085938 82.167969 99.070312 82.703125 99.070312 82.703125 C 99.070312 82.703125 111.222656 75.308594 121.652344 71.957031 C 135.988281 49.375 151.609375 17.289062 135.878906 3.261719 "/>
</g>
</svg>
