<?xml version="1.0" encoding="UTF-8"?>
<svg xmlns="http://www.w3.org/2000/svg" xmlns:xlink="http://www.w3.org/1999/xlink" width="150px" height="150px" viewBox="0 0 150 150" version="1.1">
<defs>
<linearGradient id="linear0" gradientUnits="userSpaceOnUse" x1="-0.02778" y1="0.32" x2="1" y2="0.67556" gradientTransform="matrix(150,0,0,149.609375,0,0)">
<stop offset="0" style="stop-color:rgb(13.333333%,59.607843%,74.117647%);stop-opacity:1;"/>
<stop offset="1" style="stop-color:rgb(5.490196%,84.313725%,70.980392%);stop-opacity:1;"/>
</linearGradient>
</defs>
<g id="surface1">
<path style=" stroke:none;fill-rule:nonzero;fill:url(#linear0);" d="M 75 0 C 55 0 42.5 16.625 37.5 49.871094 C 45 33.246094 53.75 27.011719 63.75 31.167969 C 69.457031 33.539062 73.535156 40.421875 78.046875 48.035156 C 85.402344 60.445312 93.910156 74.804688 112.5 74.804688 C 132.5 74.804688 145 58.183594 150 24.933594 C 142.5 41.558594 133.75 47.792969 123.75 43.636719 C 118.042969 41.265625 113.964844 34.382812 109.453125 26.769531 C 102.097656 14.359375 93.589844 0 75 0 M 37.5 74.804688 C 17.5 74.804688 5 91.429688 0 124.675781 C 7.5 108.050781 16.25 101.816406 26.25 105.972656 C 31.957031 108.34375 36.035156 115.226562 40.546875 122.84375 C 47.902344 135.25 56.410156 149.609375 75 149.609375 C 95 149.609375 107.5 132.988281 112.5 99.742188 C 105 116.363281 96.25 122.597656 86.25 118.441406 C 80.542969 116.070312 76.464844 109.1875 71.953125 101.574219 C 64.597656 89.164062 56.089844 74.804688 37.5 74.804688 "/>
</g>
</svg>
