<?xml version="1.0" encoding="UTF-8"?>
<svg xmlns="http://www.w3.org/2000/svg" xmlns:xlink="http://www.w3.org/1999/xlink" width="150px" height="150px" viewBox="0 0 150 150" version="1.1">
<g id="surface1">
<path style=" stroke:none;fill-rule:nonzero;fill:rgb(0%,47.843137%,80.000001%);fill-opacity:1;" d="M 35.15625 0 L 114.84375 0 C 134.261719 0 150 15.738281 150 35.15625 L 150 114.84375 C 150 134.261719 134.261719 150 114.84375 150 L 35.15625 150 C 15.738281 150 0 134.261719 0 114.84375 L 0 35.15625 C 0 15.738281 15.738281 0 35.15625 0 Z M 35.15625 0 "/>
<path style=" stroke:none;fill-rule:nonzero;fill:rgb(100%,100%,100%);fill-opacity:1;" d="M 33.171875 75.496094 L 33.125 81.640625 L 52.648438 81.640625 L 52.648438 137.117188 L 66.457031 137.117188 L 66.457031 81.640625 L 85.980469 81.640625 L 85.980469 75.617188 C 85.980469 72.28125 85.910156 69.496094 85.8125 69.425781 C 85.742188 69.332031 73.859375 69.28125 59.457031 69.308594 L 33.242188 69.378906 Z M 121.035156 69.203125 C 124.84375 70.15625 127.75 71.847656 130.417969 74.609375 C 131.796875 76.085938 133.84375 78.777344 134.011719 79.417969 C 134.058594 79.609375 127.535156 83.988281 123.582031 86.441406 C 123.441406 86.539062 122.867188 85.917969 122.226562 84.964844 C 120.296875 82.15625 118.273438 80.941406 115.179688 80.726562 C 110.628906 80.417969 107.703125 82.800781 107.726562 86.777344 C 107.726562 87.941406 107.890625 88.632812 108.367188 89.585938 C 109.367188 91.65625 111.226562 92.894531 117.058594 95.417969 C 127.796875 100.039062 132.390625 103.085938 135.25 107.417969 C 138.441406 112.25 139.15625 119.964844 136.988281 125.703125 C 134.605469 131.941406 128.703125 136.179688 120.390625 137.585938 C 117.820312 138.039062 111.726562 137.964844 108.964844 137.464844 C 102.941406 136.394531 97.226562 133.417969 93.703125 129.515625 C 92.320312 127.988281 89.628906 124.011719 89.796875 123.726562 C 89.867188 123.632812 90.488281 123.25 91.179688 122.847656 C 91.84375 122.464844 94.367188 121.011719 96.75 119.632812 L 101.058594 117.132812 L 101.964844 118.464844 C 103.226562 120.394531 105.988281 123.039062 107.65625 123.917969 C 112.441406 126.441406 119.011719 126.085938 122.25 123.179688 C 123.628906 121.917969 124.203125 120.609375 124.203125 118.679688 C 124.203125 116.941406 123.988281 116.179688 123.082031 114.871094 C 121.914062 113.203125 119.535156 111.800781 112.773438 108.871094 C 105.035156 105.539062 101.703125 103.464844 98.65625 100.179688 C 96.890625 98.277344 95.226562 95.226562 94.535156 92.679688 C 93.964844 90.5625 93.820312 85.25 94.273438 83.109375 C 95.867188 75.632812 101.511719 70.417969 109.652344 68.871094 C 112.296875 68.371094 118.441406 68.5625 121.035156 69.203125 "/>
</g>
</svg>
