<?xml version="1.0" encoding="UTF-8"?>
<svg xmlns="http://www.w3.org/2000/svg" xmlns:xlink="http://www.w3.org/1999/xlink" width="150px" height="150px" viewBox="0 0 150 150" version="1.1">
<g id="surface1">
<path style=" stroke:none;fill-rule:nonzero;fill:rgb(66.666669%,0%,100%);fill-opacity:1;" d="M 137.40625 56.25 L 106.167969 56.25 C 103.738281 56.128906 101.570312 54.699219 100.5 52.519531 C 99.425781 50.335938 99.625 47.746094 101.011719 45.75 L 121.625 14.457031 C 122.265625 13.472656 122.332031 12.222656 121.800781 11.175781 C 121.269531 10.128906 120.21875 9.441406 119.046875 9.375 L 39.507812 9.375 C 38.464844 9.332031 37.484375 9.847656 36.929688 10.730469 L 9.882812 51.167969 C 9.242188 52.152344 9.175781 53.402344 9.707031 54.449219 C 10.238281 55.496094 11.289062 56.183594 12.460938 56.25 L 50.78125 56.25 C 53.207031 56.375 55.375 57.804688 56.445312 59.984375 C 57.515625 62.164062 57.320312 64.753906 55.929688 66.75 L 34.929688 98.042969 C 34.289062 99.027344 34.222656 100.277344 34.75 101.324219 C 35.28125 102.371094 36.328125 103.058594 37.5 103.125 L 68.882812 103.132812 C 72.347656 103.222656 75.085938 106.105469 75 109.570312 L 75 137.386719 C 74.925781 138.722656 75.734375 139.953125 76.988281 140.417969 C 78.246094 140.882812 79.660156 140.476562 80.476562 139.414062 L 139.976562 61.667969 C 140.726562 60.660156 140.855469 59.320312 140.316406 58.183594 C 139.777344 57.050781 138.65625 56.304688 137.398438 56.25 "/>
</g>
</svg>
